<svg width="48" height="48" viewBox="0 0 48 48" fill="none" xmlns="http://www.w3.org/2000/svg">
<path d="M5.625 21H6.75V26.25H8.25V21H9.75V19.5H8.25V16.2961C8.8468 16.6296 9.47908 16.8953 10.135 17.088C12.0462 17.6761 14.573 18 17.25 18C19.927 18 22.4538 17.6761 24.365 17.088C25.0209 16.8953 25.6532 16.6296 26.25 16.2961V21.75H27.75V21H28.875C29.5712 21 30.2389 20.7234 30.7312 20.2312C31.2234 19.7389 31.5 19.0712 31.5 18.375C31.5 17.6788 31.2234 17.0111 30.7312 16.5188C30.2389 16.0266 29.5712 15.75 28.875 15.75H27.75V14.25C27.75 13.4889 27.2391 12.4037 24.8054 11.5563C23.3908 11.0637 21.5323 10.7234 19.498 10.579C19.4989 10.5527 19.5 10.5265 19.5 10.5C19.5 9.90326 19.2629 9.33097 18.841 8.90901C18.419 8.48705 17.8467 8.25 17.25 8.25C16.6533 8.25 16.081 8.48705 15.659 8.90901C15.2371 9.33097 15 9.90326 15 10.5C15 10.5265 15.0011 10.5527 15.002 10.579C12.9677 10.7234 11.1092 11.0637 9.69461 11.5563C7.26086 12.4037 6.75 13.4889 6.75 14.25V15.75H5.625C4.92881 15.75 4.26113 16.0266 3.76884 16.5188C3.27656 17.0111 3 17.6788 3 18.375C3 19.0712 3.27656 19.7389 3.76884 20.2312C4.26113 20.7234 4.92881 21 5.625 21ZM28.875 17.25C29.1734 17.25 29.4595 17.3685 29.6705 17.5795C29.8815 17.7905 30 18.0766 30 18.375C30 18.6734 29.8815 18.9595 29.6705 19.1705C29.4595 19.3815 29.1734 19.5 28.875 19.5H27.75V17.25H28.875ZM15.7167 12.1445C16.1325 12.5336 16.6806 12.75 17.25 12.75C17.8194 12.75 18.3675 12.5336 18.7833 12.1445C19.6699 12.3225 20.1148 12.6124 20.2305 12.7511C20.0354 12.9968 19.0083 13.5 17.25 13.5C15.4917 13.5 14.4646 12.9968 14.2695 12.7511C14.3852 12.6124 14.8301 12.3225 15.7167 12.1445ZM17.25 9.75C17.3983 9.75 17.5433 9.79399 17.6667 9.8764C17.79 9.95881 17.8861 10.0759 17.9429 10.213C17.9997 10.35 18.0145 10.5008 17.9856 10.6463C17.9567 10.7918 17.8852 10.9254 17.7803 11.0303C17.6754 11.1352 17.5418 11.2067 17.3963 11.2356C17.2508 11.2645 17.1 11.2497 16.963 11.1929C16.8259 11.1361 16.7088 11.04 16.6264 10.9167C16.544 10.7933 16.5 10.6483 16.5 10.5C16.5002 10.3012 16.5793 10.1105 16.7199 9.96992C16.8605 9.82932 17.0512 9.75023 17.25 9.75ZM10.1879 12.9729C11.0429 12.687 11.9207 12.4745 12.8118 12.3377C12.7708 12.4713 12.7499 12.6103 12.75 12.75C12.75 13.1717 12.9539 13.9609 14.3199 14.5072C15.1146 14.825 16.1552 15 17.25 15C18.3448 15 19.3854 14.825 20.1801 14.5072C21.5461 13.9609 21.75 13.1717 21.75 12.75C21.7501 12.6103 21.7292 12.4713 21.6882 12.3377C22.5793 12.4745 23.4571 12.687 24.3121 12.9729C25.7339 13.468 26.25 14.0079 26.25 14.25C26.25 14.4415 25.8321 15.0672 23.9238 15.6544C22.1517 16.1997 19.7816 16.5 17.25 16.5C14.7184 16.5 12.3483 16.1997 10.5762 15.6544C8.66789 15.0672 8.25 14.4415 8.25 14.25C8.25 14.0079 8.76608 13.468 10.1879 12.9729ZM5.625 17.25H6.75V19.5H5.625C5.32663 19.5 5.04048 19.3815 4.8295 19.1705C4.61853 18.9595 4.5 18.6734 4.5 18.375C4.5 18.0766 4.61853 17.7905 4.8295 17.5795C5.04048 17.3685 5.32663 17.25 5.625 17.25Z" fill="#525252"/>
<path d="M14.0266 36.2032C14.3142 36.3432 14.6091 36.4677 14.91 36.5762C16.5483 37.1719 18.7111 37.5 21 37.5C23.2889 37.5 25.4517 37.1719 27.09 36.5762C27.3925 36.4672 27.6889 36.3419 27.9779 36.201C27.9325 36.3018 27.885 36.4019 27.8338 36.5009L29.1663 37.1898C29.7139 36.1258 29.9997 34.9466 30 33.75C30 32.9435 29.4951 31.7984 27.09 30.9238C25.4517 30.3281 23.2889 30 21 30C18.7111 30 16.5483 30.3281 14.91 30.9238C14.6159 31.0308 14.3506 31.1418 14.1107 31.2558L11.0362 29.2061C8.87955 27.7653 6.34362 26.9975 3.75 27C3.15326 27 2.58097 27.2371 2.15901 27.659C1.73705 28.081 1.5 28.6533 1.5 29.25C1.5 29.8467 1.73705 30.419 2.15901 30.841C2.58097 31.263 3.15326 31.5 3.75 31.5C5.55834 31.4983 7.32645 32.0336 8.83013 33.0381L12.1513 35.2523C12.4998 36.9446 13.4208 38.4651 14.7594 39.5576C16.098 40.6501 17.7722 41.2478 19.5 41.25V39.75C18.343 39.7487 17.211 39.4133 16.24 38.7841C15.269 38.1549 14.5004 37.2587 14.0266 36.2032ZM15.4227 32.3335C16.9008 31.796 18.8816 31.5 21 31.5C23.1184 31.5 25.0992 31.796 26.5773 32.3335C27.9055 32.8165 28.5 33.393 28.5 33.75C28.5 34.1071 27.9055 34.6835 26.5773 35.1665C25.0992 35.704 23.1184 36 21 36C18.8816 36 16.9008 35.704 15.4227 35.1665C14.0945 34.6835 13.5 34.1071 13.5 33.75C13.5 33.393 14.0945 32.8165 15.4227 32.3335ZM3.75 30C3.55109 30 3.36032 29.921 3.21967 29.7803C3.07902 29.6397 3 29.4489 3 29.25C3 29.0511 3.07902 28.8603 3.21967 28.7197C3.36032 28.579 3.55109 28.5 3.75 28.5C6.04744 28.4978 8.29378 29.1779 10.2041 30.4542L12.7521 32.1528C12.3164 32.5736 12.1133 32.9959 12.0377 33.3738L9.66216 31.7901C7.91222 30.621 5.85452 29.998 3.75 30Z" fill="#525252"/>
<path d="M42.7935 34.4256C42.5302 34.2703 42.2383 34.1696 41.9352 34.1294C41.6321 34.0892 41.324 34.1104 41.0293 34.1918L35.7627 35.6281C35.2844 35.7616 34.8618 36.0454 34.5575 36.4377C34.2531 36.83 34.0831 37.3098 34.0727 37.8062L30.0745 38.9486L27.3354 37.5791C27.1753 37.499 26.9918 37.4788 26.8181 37.5223L20.8181 39.0223C20.7205 39.0467 20.6288 39.0904 20.5485 39.151C20.4682 39.2116 20.4009 39.2877 20.3505 39.3748C20.3002 39.4619 20.268 39.5582 20.2556 39.6581C20.2433 39.7579 20.2512 39.8592 20.2789 39.9559L21.7789 45.2059C21.8067 45.3033 21.8539 45.394 21.9177 45.4726C21.9815 45.5512 22.0606 45.616 22.1501 45.6633C22.2396 45.7105 22.3378 45.7391 22.4387 45.7474C22.5396 45.7556 22.6411 45.7434 22.7372 45.7114L29.4872 43.4614C29.6069 43.4215 29.7146 43.352 29.8003 43.2595C29.886 43.1669 29.947 43.0542 29.9776 42.9318L30.6226 40.352L34.5382 39.2333C34.8148 39.5982 35.1943 39.8718 35.628 40.0188C36.0616 40.1659 36.5293 40.1795 36.9707 40.058L42.2374 38.6216C42.8149 38.4608 43.3071 38.0817 43.6101 37.5644C43.913 37.0471 44.0029 36.4323 43.8606 35.8499C43.7874 35.5531 43.6552 35.274 43.4719 35.0293C43.2886 34.7846 43.0579 34.5793 42.7935 34.4256ZM28.6223 42.1686L23.006 44.0407L21.9342 40.2894L26.9128 39.0448L29.1265 40.1517L28.6223 42.1686ZM41.8427 37.1745L36.5761 38.6108C36.4739 38.6387 36.3671 38.6459 36.2621 38.632C36.1571 38.6181 36.0559 38.5833 35.9645 38.5298C35.8731 38.4763 35.7933 38.405 35.7298 38.3203C35.6663 38.2355 35.6204 38.1389 35.5947 38.0361C35.5453 37.8343 35.5765 37.6211 35.6815 37.4418C35.7865 37.2625 35.9571 37.1311 36.1573 37.0753L41.424 35.6389C41.4927 35.6201 41.5636 35.6105 41.6349 35.6105C41.8121 35.611 41.9841 35.6706 42.1236 35.7799C42.2631 35.8892 42.3623 36.0418 42.4054 36.2137C42.4547 36.4156 42.4236 36.6287 42.3185 36.808C42.2135 36.9873 42.0429 37.1187 41.8427 37.1745Z" fill="#525252"/>
<path d="M44.25 22.5C41.6803 22.5001 39.1315 22.9622 36.7253 23.8641L36.5032 23.9476C36.0668 23.6594 35.4887 23.4071 34.7688 23.1906C33.2843 22.7453 31.3243 22.5 29.25 22.5C27.1757 22.5 25.2157 22.7453 23.7312 23.1906C21.9189 23.7343 21 24.5113 21 25.5C21.0001 25.5684 21.0048 25.6367 21.014 25.7045L21.291 29.3075L22.7866 29.1925L22.6495 27.4095C23.0005 27.5675 23.3619 27.7011 23.7312 27.8094C25.2157 28.2547 27.1757 28.5 29.25 28.5C31.3243 28.5 33.2843 28.2547 34.7688 27.8094C35.1383 27.701 35.4999 27.5673 35.851 27.4093L35.6254 30.3454C35.5335 31.474 35.0215 32.527 34.1906 33.2963C33.3597 34.0656 32.2704 34.4951 31.1381 34.5H30.75V36H31.1381C32.6497 35.9999 34.1056 35.4293 35.2148 34.4024C36.324 33.3754 37.0047 31.9676 37.1209 30.4605L37.2684 28.5441L38.7047 28.006C40.4775 27.3397 42.3561 26.9989 44.25 27C44.8467 27 45.419 26.7629 45.841 26.341C46.2629 25.919 46.5 25.3467 46.5 24.75C46.5 24.1533 46.2629 23.581 45.841 23.159C45.419 22.7371 44.8467 22.5 44.25 22.5ZM29.25 27C24.9017 27 22.6537 25.9244 22.5024 25.5C22.6537 25.0756 24.9017 24 29.25 24C33.5983 24 35.8463 25.0756 35.9976 25.5C35.8463 25.9244 33.5983 27 29.25 27ZM44.7818 25.28C44.712 25.3499 44.6291 25.4054 44.5379 25.4431C44.4466 25.4809 44.3488 25.5002 44.25 25.5C42.1763 25.4988 40.1193 25.8719 38.1781 26.6014L37.3953 26.8947L37.4877 25.693C37.4959 25.629 37.5 25.5645 37.5 25.5C37.4999 25.396 37.4892 25.2923 37.4679 25.1905C39.6422 24.4025 41.9373 23.9996 44.25 24C44.3982 24.0002 44.5431 24.0442 44.6663 24.1265C44.7896 24.2089 44.8857 24.3259 44.9425 24.4627C44.9994 24.5996 45.0145 24.7503 44.9859 24.8957C44.9573 25.0411 44.8863 25.1749 44.7818 25.28Z" fill="#525252"/>
<path d="M37.5 22.5V10.5C37.4995 10.1023 37.3414 9.72105 37.0602 9.43984C36.779 9.15864 36.3977 9.00045 36 9H25.5C25.1023 9.00045 24.721 9.15864 24.4398 9.43984C24.1586 9.72105 24.0005 10.1023 24 10.5H36V22.5H37.5Z" fill="#525252"/>
<path d="M32.25 8.25C32.3485 8.25 32.446 8.23061 32.537 8.19292C32.628 8.15523 32.7107 8.09998 32.7803 8.03034C32.85 7.96069 32.9052 7.87801 32.9429 7.78702C32.9806 7.69602 33 7.59849 33 7.5V6.75C33 6.15326 32.7629 5.58097 32.341 5.15901C31.919 4.73705 31.3467 4.5 30.75 4.5C30.1533 4.5 29.581 4.73705 29.159 5.15901C28.7371 5.58097 28.5 6.15326 28.5 6.75V7.5C28.5 7.59849 28.5194 7.69602 28.5571 7.78702C28.5948 7.87801 28.65 7.96069 28.7197 8.03034C28.7893 8.09998 28.872 8.15523 28.963 8.19292C29.054 8.23061 29.1515 8.25 29.25 8.25H32.25ZM30.75 6C30.8486 5.99973 30.9462 6.01894 31.0373 6.05654C31.1285 6.09413 31.2112 6.14936 31.2809 6.21906C31.3506 6.28876 31.4059 6.37155 31.4435 6.46267C31.4811 6.55378 31.5003 6.65143 31.5 6.75H30C30.0002 6.55116 30.0793 6.36052 30.2199 6.21992C30.3605 6.07932 30.5512 6.00023 30.75 6Z" fill="#525252"/>
<path d="M25.5 8.25H27C27.0985 8.25 27.196 8.23061 27.287 8.19292C27.378 8.15523 27.4607 8.09998 27.5303 8.03034C27.6 7.96069 27.6552 7.87801 27.6929 7.78702C27.7306 7.69602 27.75 7.59849 27.75 7.5V6.75C27.75 5.95435 28.066 5.19129 28.6286 4.62868C29.1913 4.06607 29.9543 3.75 30.75 3.75C31.5456 3.75 32.3087 4.06607 32.8713 4.62868C33.4339 5.19129 33.75 5.95435 33.75 6.75V7.5C33.75 7.59849 33.7694 7.69602 33.8071 7.78702C33.8447 7.87801 33.9 7.96069 33.9696 8.03034C34.0393 8.09998 34.122 8.15523 34.213 8.19292C34.3039 8.23061 34.4015 8.25 34.5 8.25H36C36.5965 8.25068 37.1684 8.48795 37.5902 8.90976C38.012 9.33157 38.2493 9.90347 38.25 10.5V21H39.75V10.5C39.7488 9.50578 39.3534 8.55261 38.6504 7.84959C37.9474 7.14657 36.9942 6.75112 36 6.75H35.25C35.25 5.55653 34.7759 4.41193 33.932 3.56802C33.088 2.72411 31.9434 2.25 30.75 2.25C29.5565 2.25 28.4119 2.72411 27.568 3.56802C26.7241 4.41193 26.25 5.55653 26.25 6.75H25.5C24.6683 6.7495 23.8601 7.02562 23.2026 7.5349C22.5451 8.04417 22.0756 8.75767 21.8682 9.56305L23.3208 9.93695C23.4454 9.45384 23.7271 9.02589 24.1217 8.72048C24.5162 8.41507 25.0011 8.24956 25.5 8.25Z" fill="#525252"/>
</svg>
