<svg width="47" height="36" viewBox="0 0 47 36" fill="none" xmlns="http://www.w3.org/2000/svg">
<path d="M29.8411 33.919H4.0928C3.24053 33.919 2.5472 33.2256 2.5472 32.3734V28.5216C1.10187 28.2688 0 27.0048 0 25.487C0 24.6624 0.32 23.8891 0.9024 23.3067C1.48373 22.7254 2.25813 22.4043 3.0816 22.4043C3.55093 22.4043 4 22.5067 4.41707 22.7083C5.47733 23.2192 6.16213 24.3104 6.16213 25.487V27.5019H27.7728V25.487C27.7728 24.3115 28.4576 23.2203 29.5168 22.7083C29.9381 22.5067 30.3872 22.4043 30.8533 22.4043C32.5525 22.4043 33.9349 23.7867 33.9349 25.487C33.9349 26.3094 33.6149 27.0827 33.0336 27.6651C32.5781 28.1195 32.0075 28.4139 31.3877 28.5216V32.3723C31.3877 33.2256 30.6944 33.919 29.8411 33.919ZM3.0816 23.472C2.54293 23.472 2.03733 23.6811 1.65653 24.0619C1.27573 24.4427 1.06667 24.9483 1.06667 25.488C1.06667 26.5984 1.97013 27.503 3.0816 27.503C3.376 27.503 3.61493 27.7419 3.61493 28.0363V32.3744C3.61493 32.6379 3.82933 32.8534 4.09387 32.8534H29.8421C30.1067 32.8534 30.3221 32.639 30.3221 32.3744V28.0363C30.3221 27.7419 30.5611 27.503 30.8555 27.503C31.3931 27.503 31.8997 27.2939 32.2805 26.9131C32.6603 26.5323 32.8693 26.0267 32.8693 25.4891C32.8693 24.3776 31.9659 23.4731 30.8544 23.4731C30.5493 23.4731 30.2549 23.5403 29.9797 23.6715C29.2768 24.0107 28.8395 24.7072 28.8395 25.4891V28.0374C28.8395 28.3318 28.6005 28.5707 28.3061 28.5707H5.6288C5.3344 28.5707 5.09547 28.3318 5.09547 28.0374V25.4891C5.09547 24.719 4.6464 24.0054 3.95307 23.6715C3.68107 23.5382 3.3888 23.472 3.0816 23.472Z" fill="#525252"/>
<path d="M29.7494 23.7234C29.455 23.7234 29.2161 23.4845 29.2161 23.1901V18.8552C29.2161 18.5906 29.0006 18.3762 28.7371 18.3762H5.19794C4.93341 18.3762 4.71901 18.5906 4.71901 18.8552V23.1901C4.71901 23.4845 4.48008 23.7234 4.18568 23.7234C3.89128 23.7234 3.65234 23.4845 3.65234 23.1901V18.8552C3.65234 18.0029 4.34568 17.3096 5.19794 17.3096H28.7382C29.5905 17.3096 30.2838 18.0029 30.2838 18.8552V23.1901C30.2827 23.4845 30.0449 23.7234 29.7494 23.7234Z" fill="#525252"/>
<path d="M16.9669 26.7687C16.6725 26.7687 16.4336 26.5298 16.4336 26.2354V19.6466C16.4336 19.3522 16.6725 19.1133 16.9669 19.1133C17.2613 19.1133 17.5003 19.3522 17.5003 19.6466V26.2354C17.5003 26.5298 17.2613 26.7687 16.9669 26.7687Z" fill="#525252"/>
<path d="M8.00877 36.0025H5.62904C5.33464 36.0025 5.0957 35.7636 5.0957 35.4692V33.3849C5.0957 33.0905 5.33464 32.8516 5.62904 32.8516H8.00877C8.30317 32.8516 8.5421 33.0905 8.5421 33.3849V35.4692C8.5421 35.7636 8.30424 36.0025 8.00877 36.0025ZM6.16237 34.9358H7.47544V33.9182H6.16237V34.9358Z" fill="#525252"/>
<path d="M28.3056 36.0025H25.9259C25.6315 36.0025 25.3926 35.7636 25.3926 35.4692V33.3849C25.3926 33.0905 25.6315 32.8516 25.9259 32.8516H28.3056C28.6 32.8516 28.839 33.0905 28.839 33.3849V35.4692C28.839 35.7636 28.6 36.0025 28.3056 36.0025ZM26.4592 34.9358H27.7723V33.9182H26.4592V34.9358Z" fill="#525252"/>
<path d="M45.6292 35.3629H36.6212C36.3268 35.3629 36.0879 35.124 36.0879 34.8296V33.3032C36.0879 32.4211 36.8058 31.7021 37.689 31.7021H44.5626C45.4447 31.7021 46.1636 32.42 46.1636 33.3032V34.8296C46.1626 35.124 45.9247 35.3629 45.6292 35.3629ZM37.1546 34.2963H45.0959V33.3032C45.0959 33.0088 44.8559 32.7688 44.5615 32.7688H37.6879C37.3935 32.7688 37.1535 33.0088 37.1535 33.3032L37.1546 34.2963Z" fill="#525252"/>
<path d="M41.1251 32.7692C40.8307 32.7692 40.5918 32.5303 40.5918 32.2359V11.1906C40.5918 10.8962 40.8307 10.6572 41.1251 10.6572C41.4195 10.6572 41.6585 10.8962 41.6585 11.1906V32.2359C41.6585 32.5314 41.4206 32.7692 41.1251 32.7692Z" fill="#525252"/>
<path d="M46.3991 11.7235H35.8519C35.6961 11.7235 35.5479 11.6553 35.4465 11.5369C35.3452 11.4185 35.3004 11.2617 35.3249 11.1081L36.6401 2.67288C36.6807 2.41368 36.9047 2.22168 37.1671 2.22168H45.0828C45.3452 2.22168 45.5692 2.41261 45.6097 2.67288L46.9249 11.1081C46.9495 11.2617 46.9047 11.4185 46.8033 11.5369C46.7031 11.6553 46.5548 11.7235 46.3991 11.7235ZM36.4748 10.6569H45.7761L44.6273 3.28835H37.6247L36.4748 10.6569Z" fill="#525252"/>
<path d="M42.9575 3.28826C42.6684 3.28826 42.4316 3.05786 42.4241 2.76666C42.4081 2.06693 41.8247 1.49733 41.1239 1.49733C40.4231 1.49733 39.8396 2.06693 39.8236 2.76666C39.8172 3.06106 39.5751 3.29573 39.2785 3.2872C38.9841 3.2808 38.7505 3.03653 38.758 2.74213C38.7879 1.46746 39.8492 0.430664 41.1249 0.430664C42.4007 0.430664 43.462 1.46746 43.4919 2.74213C43.4983 3.03653 43.2657 3.2808 42.9713 3.2872C42.966 3.28826 42.9617 3.28826 42.9575 3.28826Z" fill="#525252"/>
<path d="M23.1805 14.3933H10.756C10.4616 14.3933 10.2227 14.1543 10.2227 13.8599V3.79701C10.2227 3.50261 10.4616 3.26367 10.756 3.26367H23.1805C23.4749 3.26367 23.7139 3.50261 23.7139 3.79701V13.8599C23.7139 14.1543 23.4749 14.3933 23.1805 14.3933ZM11.2893 13.3266H22.6472V4.33034H11.2893V13.3266Z" fill="#525252"/>
<path d="M10.7562 12.2479C10.6218 12.2479 10.4874 12.1977 10.3839 12.0964C10.1727 11.8905 10.1684 11.5535 10.3743 11.3423L13.8516 7.77532C13.9519 7.67292 14.0895 7.61426 14.2335 7.61426C14.3775 7.61426 14.5151 7.67186 14.6154 7.77532L17.698 10.938C17.9039 11.1492 17.8996 11.4863 17.6884 11.6921C17.4772 11.898 17.1402 11.8937 16.9343 11.6825L14.2335 8.91132L11.138 12.0868C11.0335 12.1945 10.8948 12.2479 10.7562 12.2479Z" fill="#525252"/>
<path d="M23.1806 12.7721C23.042 12.7721 22.9033 12.7187 22.7988 12.611L19.7961 9.53153L17.058 12.3401C16.8521 12.5513 16.515 12.5555 16.3038 12.3497C16.0926 12.1438 16.0884 11.8067 16.2942 11.5955L19.4142 8.39447C19.5145 8.291 19.6521 8.2334 19.7961 8.2334C19.9401 8.2334 20.0777 8.291 20.178 8.39447L23.5625 11.8665C23.7684 12.0777 23.7641 12.4147 23.5529 12.6206C23.4494 12.7209 23.315 12.7721 23.1806 12.7721Z" fill="#525252"/>
<path d="M17.3794 8.30175C16.5346 8.30175 15.8477 7.61481 15.8477 6.77001C15.8477 5.92521 16.5346 5.23828 17.3794 5.23828C18.2242 5.23828 18.9111 5.92521 18.9111 6.77001C18.9111 7.61481 18.2242 8.30175 17.3794 8.30175ZM17.3794 6.30495C17.1234 6.30495 16.9143 6.51401 16.9143 6.77001C16.9143 7.02601 17.1234 7.23508 17.3794 7.23508C17.6354 7.23508 17.8445 7.02601 17.8445 6.77001C17.8445 6.51401 17.6365 6.30495 17.3794 6.30495Z" fill="#525252"/>
<path d="M19.0252 4.33067C18.8481 4.33067 18.6742 4.24213 18.5729 4.08107L16.9687 1.5328L15.3644 4.08107C15.2076 4.33067 14.878 4.40533 14.6284 4.24853C14.3788 4.09173 14.3041 3.76213 14.4609 3.51253L16.5164 0.248533C16.6145 0.0938665 16.7841 0 16.9676 0C17.151 0 17.3217 0.0938665 17.4188 0.248533L19.4742 3.51253C19.631 3.76213 19.5564 4.09067 19.3068 4.24853C19.2204 4.304 19.1223 4.33067 19.0252 4.33067Z" fill="#525252"/>
</svg>
