<svg width="48" height="48" viewBox="0 0 48 48" fill="none" xmlns="http://www.w3.org/2000/svg">
<path d="M30.3745 39.918H4.62625C3.77398 39.918 3.08065 39.2247 3.08065 38.3724V34.5207C1.63531 34.2679 0.533447 33.0039 0.533447 31.486C0.533447 30.6615 0.853447 29.8881 1.43585 29.3057C2.01718 28.7244 2.79158 28.4033 3.61505 28.4033C4.08438 28.4033 4.53345 28.5057 4.95051 28.7073C6.01078 29.2183 6.69558 30.3095 6.69558 31.486V33.5009H28.3062V31.486C28.3062 30.3105 28.991 29.2193 30.0502 28.7073C30.4716 28.5057 30.9206 28.4033 31.3868 28.4033C33.086 28.4033 34.4684 29.7857 34.4684 31.486C34.4684 32.3084 34.1484 33.0817 33.567 33.6641C33.1116 34.1185 32.5409 34.4129 31.9212 34.5207V38.3713C31.9212 39.2247 31.2278 39.918 30.3745 39.918ZM3.61505 29.4711C3.07638 29.4711 2.57078 29.6801 2.18998 30.0609C1.80918 30.4417 1.60011 30.9473 1.60011 31.4871C1.60011 32.5975 2.50358 33.502 3.61505 33.502C3.90945 33.502 4.14838 33.7409 4.14838 34.0353V38.3735C4.14838 38.6369 4.36278 38.8524 4.62731 38.8524H30.3756C30.6401 38.8524 30.8556 38.638 30.8556 38.3735V34.0353C30.8556 33.7409 31.0945 33.502 31.3889 33.502C31.9265 33.502 32.4332 33.2929 32.814 32.9121C33.1937 32.5313 33.4028 32.0257 33.4028 31.4881C33.4028 30.3767 32.4993 29.4721 31.3878 29.4721C31.0828 29.4721 30.7884 29.5393 30.5132 29.6705C29.8102 30.0097 29.3729 30.7063 29.3729 31.4881V34.0364C29.3729 34.3308 29.134 34.5697 28.8396 34.5697H6.16225C5.86785 34.5697 5.62891 34.3308 5.62891 34.0364V31.4881C5.62891 30.718 5.17985 30.0044 4.48651 29.6705C4.21451 29.5372 3.92225 29.4711 3.61505 29.4711Z" fill="white"/>
<path d="M30.2829 29.7227C29.9885 29.7227 29.7495 29.4838 29.7495 29.1894V24.8544C29.7495 24.5899 29.5341 24.3755 29.2706 24.3755H5.73139C5.46686 24.3755 5.25246 24.5899 5.25246 24.8544V29.1894C5.25246 29.4838 5.01352 29.7227 4.71912 29.7227C4.42472 29.7227 4.18579 29.4838 4.18579 29.1894V24.8544C4.18579 24.0022 4.87912 23.3088 5.73139 23.3088H29.2717C30.1239 23.3088 30.8173 24.0022 30.8173 24.8544V29.1894C30.8162 29.4838 30.5783 29.7227 30.2829 29.7227Z" fill="white"/>
<path d="M17.5009 32.768C17.2065 32.768 16.9675 32.5291 16.9675 32.2347V25.6459C16.9675 25.3515 17.2065 25.1125 17.5009 25.1125C17.7953 25.1125 18.0342 25.3515 18.0342 25.6459V32.2347C18.0342 32.5291 17.7953 32.768 17.5009 32.768Z" fill="white"/>
<path d="M8.54197 42.0022H6.16224C5.86784 42.0022 5.62891 41.7633 5.62891 41.4689V39.3847C5.62891 39.0903 5.86784 38.8513 6.16224 38.8513H8.54197C8.83637 38.8513 9.07531 39.0903 9.07531 39.3847V41.4689C9.07531 41.7633 8.83744 42.0022 8.54197 42.0022ZM6.69557 40.9356H8.00864V39.918H6.69557V40.9356Z" fill="white"/>
<path d="M28.8396 42.0022H26.4598C26.1654 42.0022 25.9265 41.7633 25.9265 41.4689V39.3847C25.9265 39.0903 26.1654 38.8513 26.4598 38.8513H28.8396C29.134 38.8513 29.3729 39.0903 29.3729 39.3847V41.4689C29.3729 41.7633 29.134 42.0022 28.8396 42.0022ZM26.9932 40.9356H28.3062V39.918H26.9932V40.9356Z" fill="white"/>
<path d="M46.1634 41.362H37.1554C36.861 41.362 36.6221 41.123 36.6221 40.8286V39.3022C36.6221 38.4201 37.3399 37.7012 38.2231 37.7012H45.0967C45.9789 37.7012 46.6978 38.419 46.6978 39.3022V40.8286C46.6967 41.123 46.4589 41.362 46.1634 41.362ZM37.6887 40.2953H45.6301V39.3022C45.6301 39.0078 45.3901 38.7678 45.0957 38.7678H38.2221C37.9277 38.7678 37.6877 39.0078 37.6877 39.3022L37.6887 40.2953Z" fill="white"/>
<path d="M41.6588 38.7679C41.3644 38.7679 41.1255 38.529 41.1255 38.2346V17.1892C41.1255 16.8948 41.3644 16.6559 41.6588 16.6559C41.9532 16.6559 42.1922 16.8948 42.1922 17.1892V38.2346C42.1922 38.53 41.9543 38.7679 41.6588 38.7679Z" fill="white"/>
<path d="M46.9335 17.7226H36.3863C36.2306 17.7226 36.0823 17.6543 35.981 17.5359C35.8796 17.4175 35.8348 17.2607 35.8594 17.1071L37.1746 8.6719C37.2151 8.4127 37.4391 8.2207 37.7015 8.2207H45.6172C45.8796 8.2207 46.1036 8.41164 46.1442 8.6719L47.4594 17.1071C47.4839 17.2607 47.4391 17.4175 47.3378 17.5359C47.2375 17.6543 47.0892 17.7226 46.9335 17.7226ZM37.0092 16.6559H46.3106L45.1618 9.28737H38.1591L37.0092 16.6559Z" fill="white"/>
<path d="M43.4924 9.28741C43.2033 9.28741 42.9665 9.05701 42.959 8.76581C42.943 8.06608 42.3596 7.49648 41.6588 7.49648C40.958 7.49648 40.3745 8.06608 40.3585 8.76581C40.3521 9.06021 40.11 9.29488 39.8134 9.28634C39.519 9.27994 39.2854 9.03568 39.2929 8.74128C39.3228 7.46661 40.3841 6.42981 41.6598 6.42981C42.9356 6.42981 43.9969 7.46661 44.0268 8.74128C44.0332 9.03568 43.8006 9.27994 43.5062 9.28634C43.5009 9.28741 43.4966 9.28741 43.4924 9.28741Z" fill="white"/>
<path d="M23.713 20.3925H11.2885C10.9941 20.3925 10.7551 20.1536 10.7551 19.8592V9.79627C10.7551 9.50187 10.9941 9.26294 11.2885 9.26294H23.713C24.0074 9.26294 24.2463 9.50187 24.2463 9.79627V19.8592C24.2463 20.1536 24.0074 20.3925 23.713 20.3925ZM11.8218 19.3259H23.1797V10.3296H11.8218V19.3259Z" fill="white"/>
<path d="M11.2886 18.2475C11.1542 18.2475 11.0198 18.1974 10.9164 18.096C10.7052 17.8902 10.7009 17.5531 10.9068 17.3419L14.3841 13.775C14.4844 13.6726 14.622 13.6139 14.766 13.6139C14.91 13.6139 15.0476 13.6715 15.1478 13.775L18.2305 16.9376C18.4364 17.1488 18.4321 17.4859 18.2209 17.6918C18.0097 17.8976 17.6726 17.8934 17.4668 17.6822L14.766 14.911L11.6705 18.0864C11.566 18.1942 11.4273 18.2475 11.2886 18.2475Z" fill="white"/>
<path d="M23.7131 18.7712C23.5744 18.7712 23.4358 18.7179 23.3312 18.6101L20.3286 15.5307L17.5904 18.3392C17.3846 18.5504 17.0475 18.5547 16.8363 18.3488C16.6251 18.1429 16.6208 17.8059 16.8267 17.5947L19.9467 14.3936C20.047 14.2901 20.1846 14.2325 20.3286 14.2325C20.4726 14.2325 20.6102 14.2901 20.7104 14.3936L24.095 17.8656C24.3008 18.0768 24.2966 18.4139 24.0854 18.6197C23.9819 18.72 23.8475 18.7712 23.7131 18.7712Z" fill="white"/>
<path d="M17.9116 14.3008C17.0668 14.3008 16.3799 13.6138 16.3799 12.769C16.3799 11.9242 17.0668 11.2373 17.9116 11.2373C18.7564 11.2373 19.4433 11.9242 19.4433 12.769C19.4433 13.6138 18.7564 14.3008 17.9116 14.3008ZM17.9116 12.304C17.6556 12.304 17.4465 12.513 17.4465 12.769C17.4465 13.025 17.6556 13.2341 17.9116 13.2341C18.1676 13.2341 18.3767 13.025 18.3767 12.769C18.3767 12.513 18.1687 12.304 17.9116 12.304Z" fill="white"/>
<path d="M19.5574 10.3296C19.3803 10.3296 19.2065 10.241 19.1051 10.08L17.5009 7.5317L15.8966 10.08C15.7398 10.3296 15.4102 10.4042 15.1606 10.2474C14.911 10.0906 14.8363 9.76103 14.9931 9.51143L17.0486 6.24743C17.1467 6.09277 17.3163 5.9989 17.4998 5.9989C17.6833 5.9989 17.8539 6.09277 17.951 6.24743L20.0065 9.51143C20.1633 9.76103 20.0886 10.0896 19.839 10.2474C19.7526 10.3029 19.6545 10.3296 19.5574 10.3296Z" fill="white"/>
</svg>
