<svg width="48" height="48" viewBox="0 0 48 48" fill="none" xmlns="http://www.w3.org/2000/svg">
<g clip-path="url(#clip0_1580_2)">
<path d="M37.5147 0.87089C36.9346 0.16777 36.0057 -0.145119 35.1186 0.0638641C34.2315 0.272847 33.5401 0.967764 33.335 1.85565L28.9596 20.8004H12.7996C11.0324 20.8004 9.59961 22.2329 9.59961 24.0004V47.2003C9.59961 47.6421 9.95781 48.0003 10.3996 48.0003H12.7996C13.2195 48.0014 13.5687 47.678 13.5996 47.2593L14.9054 29.6004H29.1499L34.4299 47.4272C34.5311 47.7678 34.8444 48.0014 35.1994 48.0003H37.5994C37.8424 48.0003 38.0721 47.8905 38.224 47.7011C38.376 47.5116 38.4338 47.2636 38.3811 47.0264L33.6162 25.5867L38.0162 2.84939C38.1537 2.14783 37.9697 1.42206 37.5147 0.87089ZM12.0566 46.4003H11.1996V26.4004H13.5383L12.0566 46.4003ZM15.0246 28.0004L15.1429 26.4004H28.2022L28.6764 28.0004H15.0246ZM35.7971 46.4003L30.517 28.5762L29.8717 26.4004H32.1596L36.6037 46.4003H35.7971ZM36.4475 2.5451L32.1397 24.8004H11.1996V24.0004C11.1996 23.1168 11.916 22.4004 12.7996 22.4004H29.5995C29.9721 22.4004 30.296 22.1434 30.3796 21.7805L34.894 2.21658C34.9959 1.79979 35.4104 1.53925 35.8299 1.62831C36.2498 1.71698 36.5233 2.12283 36.4475 2.5451Z" fill="white"/>
</g>
<defs>
<clipPath id="clip0_1580_2">
<rect width="48" height="48" fill="white"/>
</clipPath>
</defs>
</svg>
