<svg width="30" height="48" viewBox="0 0 30 48" fill="none" xmlns="http://www.w3.org/2000/svg">
<path d="M28.3023 0.870646C27.7222 0.167526 26.7933 -0.145363 25.9062 0.06362C25.0191 0.272603 24.3277 0.96752 24.1226 1.85541L19.7472 20.8002H3.58719C1.82001 20.8002 0.387207 22.2326 0.387207 24.0002V47.2C0.387207 47.6418 0.745408 48 1.1872 48H3.58719C4.00711 48.0012 4.35632 47.6778 4.38718 47.259L5.69303 29.6001H19.9375L25.2175 47.427C25.3187 47.7676 25.632 48.0012 25.987 48H28.387C28.63 48 28.8597 47.8903 29.0116 47.7008C29.1636 47.5114 29.2214 47.2633 29.1687 47.0262L24.4038 25.5865L28.8038 2.84915C28.9413 2.14759 28.7573 1.42181 28.3023 0.870646ZM2.84422 46.4H1.9872V26.4002H4.32585L2.84422 46.4ZM5.81217 28.0002L5.93053 26.4002H18.9898L19.464 28.0002H5.81217ZM26.5847 46.4L21.3046 28.5759L20.6593 26.4002H22.9472L27.3913 46.4H26.5847ZM27.2351 2.54485L22.9273 24.8002H1.9872V24.0002C1.9872 23.1166 2.7036 22.4002 3.58719 22.4002H20.3871C20.7597 22.4002 21.0836 22.1432 21.1671 21.7803L25.6816 2.21634C25.7835 1.79955 26.198 1.539 26.6175 1.62806C27.0374 1.71673 27.3109 2.12259 27.2351 2.54485Z" fill="#525252"/>
</svg>
