<svg width="49" height="48" viewBox="0 0 49 48" fill="none" xmlns="http://www.w3.org/2000/svg">
<path d="M37.5371 26.25C37.736 26.25 37.9268 26.171 38.0674 26.0303C38.2081 25.8897 38.2871 25.6989 38.2871 25.5V24C38.2871 23.8011 38.2081 23.6103 38.0674 23.4697C37.9268 23.329 37.736 23.25 37.5371 23.25C37.3382 23.25 37.1474 23.329 37.0068 23.4697C36.8661 23.6103 36.7871 23.8011 36.7871 24V25.5C36.7871 25.6989 36.8661 25.8897 37.0068 26.0303C37.1474 26.171 37.3382 26.25 37.5371 26.25Z" fill="white"/>
<path d="M37.5371 30.75C37.3382 30.75 37.1474 30.829 37.0068 30.9697C36.8661 31.1103 36.7871 31.3011 36.7871 31.5V33C36.7871 33.1989 36.8661 33.3897 37.0068 33.5303C37.1474 33.671 37.3382 33.75 37.5371 33.75C37.736 33.75 37.9268 33.671 38.0674 33.5303C38.2081 33.3897 38.2871 33.1989 38.2871 33V31.5C38.2871 31.3011 38.2081 31.1103 38.0674 30.9697C37.9268 30.829 37.736 30.75 37.5371 30.75Z" fill="white"/>
<path d="M35.0676 44.0302C35.3702 44.1752 35.7016 44.2504 36.0371 44.25H45.0371C45.6336 44.2493 46.2055 44.0121 46.6274 43.5903C47.0492 43.1684 47.2864 42.5965 47.2871 42V22.5C47.2864 21.9035 47.0492 21.3316 46.6274 20.9097C46.2055 20.4879 45.6336 20.2507 45.0371 20.25H36.0371C35.4406 20.2507 34.8687 20.4879 34.4469 20.9097C34.025 21.3316 33.7878 21.9035 33.7871 22.5V26.25H32.2871V24.75C32.2871 24.5511 32.2081 24.3603 32.0674 24.2197C31.9268 24.079 31.736 24 31.5371 24H27.0371C26.8382 24 26.6474 24.079 26.5068 24.2197C26.3661 24.3603 26.2871 24.5511 26.2871 24.75V26.25H24.7871V24.75C24.7872 24.6513 24.7678 24.5536 24.73 24.4625C24.6922 24.3714 24.6367 24.2887 24.5668 24.2191C24.7119 23.9167 24.7872 23.5855 24.7871 23.25H26.2871C26.486 23.25 26.6768 23.171 26.8174 23.0303C26.9581 22.8897 27.0371 22.6989 27.0371 22.5C27.0371 22.3011 26.9581 22.1103 26.8174 21.9697C26.6768 21.829 26.486 21.75 26.2871 21.75H24.7871C24.7871 21.5511 24.7081 21.3603 24.5674 21.2197C24.4268 21.079 24.236 21 24.0371 21H19.5371C19.3382 21 19.1474 21.079 19.0068 21.2197C18.8661 21.3603 18.7871 21.5511 18.7871 21.75V23.2484C18.7867 23.5844 18.862 23.9162 19.0074 24.2191C18.9375 24.2887 18.882 24.3714 18.8442 24.4625C18.8064 24.5536 18.787 24.6513 18.7871 24.75V26.25H15.0371V24.75H15.7871C15.986 24.75 16.1768 24.671 16.3174 24.5303C16.4581 24.3897 16.5371 24.1989 16.5371 24C16.5371 23.8011 16.4581 23.6103 16.3174 23.4697C16.1768 23.329 15.986 23.25 15.7871 23.25H15.0371V22.5C15.0371 21.9033 14.8001 21.331 14.3781 20.909C13.9561 20.4871 13.3838 20.25 12.7871 20.25C12.1904 20.25 11.6181 20.4871 11.1961 20.909C10.7742 21.331 10.5371 21.9033 10.5371 22.5V24C10.5371 24.1989 10.6161 24.3897 10.7568 24.5303C10.8974 24.671 11.0882 24.75 11.2871 24.75C11.486 24.75 11.6768 24.671 11.8174 24.5303C11.9581 24.3897 12.0371 24.1989 12.0371 24V22.5C12.0371 22.3011 12.1161 22.1103 12.2568 21.9697C12.3974 21.829 12.5882 21.75 12.7871 21.75C12.986 21.75 13.1768 21.829 13.3174 21.9697C13.4581 22.1103 13.5371 22.3011 13.5371 22.5V26.25H7.53711V24.75C7.53711 24.1533 7.30006 23.581 6.8781 23.159C6.45614 22.7371 5.88385 22.5 5.28711 22.5C4.69037 22.5 4.11808 22.7371 3.69612 23.159C3.27416 23.581 3.03711 24.1533 3.03711 24.75V26.25C2.8382 26.25 2.64743 26.329 2.50678 26.4697C2.36613 26.6103 2.28711 26.8011 2.28711 27V43.5C2.28711 43.6989 2.36613 43.8897 2.50678 44.0303C2.64743 44.171 2.8382 44.25 3.03711 44.25H34.5371C34.6357 44.2501 34.7333 44.2308 34.8243 44.193C34.9154 44.1553 34.9981 44.1 35.0676 44.0302ZM45.0371 42.75H36.0371C35.8383 42.7498 35.6476 42.6707 35.507 42.5301C35.3664 42.3895 35.2873 42.1988 35.2871 42V29.25H45.7871V42C45.7869 42.1988 45.7078 42.3895 45.5672 42.5301C45.4266 42.6707 45.236 42.7498 45.0371 42.75ZM35.2871 22.5C35.2873 22.3012 35.3664 22.1105 35.507 21.9699C35.6476 21.8293 35.8383 21.7502 36.0371 21.75H45.0371C45.236 21.7502 45.4266 21.8293 45.5672 21.9699C45.7078 22.1105 45.7869 22.3012 45.7871 22.5V27.75H35.2871V22.5ZM30.7871 27.75V30.75H20.2871V27.75H30.7871ZM20.2871 32.25H30.7871V39.75H20.2871V32.25ZM27.7871 25.5H30.7871V26.25H27.7871V25.5ZM20.2871 26.25V25.5H23.2871V26.25H20.2871ZM20.2871 22.5H23.2871V23.2484C23.2869 23.4477 23.2076 23.6387 23.0667 23.7796C22.9258 23.9205 22.7348 23.9998 22.5355 24H21.0387C20.8394 23.9998 20.6484 23.9205 20.5075 23.7796C20.3666 23.6387 20.2873 23.4477 20.2871 23.2484V22.5ZM4.53711 24.75C4.53711 24.5511 4.61613 24.3603 4.75678 24.2197C4.89743 24.079 5.0882 24 5.28711 24C5.48602 24 5.67679 24.079 5.81744 24.2197C5.95809 24.3603 6.03711 24.5511 6.03711 24.75V26.25H4.53711V24.75ZM33.7871 42.75H3.78711V27.75H18.7871V40.5C18.7871 40.6989 18.8661 40.8897 19.0068 41.0303C19.1474 41.171 19.3382 41.25 19.5371 41.25H31.5371C31.736 41.25 31.9268 41.171 32.0674 41.0303C32.2081 40.8897 32.2871 40.6989 32.2871 40.5V27.75H33.7871V42.75Z" fill="white"/>
<path d="M27.0371 33.75H24.0371C23.8382 33.75 23.6474 33.829 23.5068 33.9697C23.3661 34.1103 23.2871 34.3011 23.2871 34.5C23.2871 34.6989 23.3661 34.8897 23.5068 35.0303C23.6474 35.171 23.8382 35.25 24.0371 35.25H27.0371C27.236 35.25 27.4268 35.171 27.5674 35.0303C27.7081 34.8897 27.7871 34.6989 27.7871 34.5C27.7871 34.3011 27.7081 34.1103 27.5674 33.9697C27.4268 33.829 27.236 33.75 27.0371 33.75Z" fill="white"/>
<path d="M16.5371 35.25H6.03711C5.8382 35.25 5.64743 35.329 5.50678 35.4697C5.36613 35.6103 5.28711 35.8011 5.28711 36V40.5C5.28711 40.6989 5.36613 40.8897 5.50678 41.0303C5.64743 41.171 5.8382 41.25 6.03711 41.25H16.5371C16.736 41.25 16.9268 41.171 17.0674 41.0303C17.2081 40.8897 17.2871 40.6989 17.2871 40.5V36C17.2871 35.8011 17.2081 35.6103 17.0674 35.4697C16.9268 35.329 16.736 35.25 16.5371 35.25ZM15.7871 39.75H6.78711V36.75H15.7871V39.75Z" fill="white"/>
<path d="M16.5371 29.25H6.03711C5.8382 29.25 5.64743 29.329 5.50678 29.4697C5.36613 29.6103 5.28711 29.8011 5.28711 30V33C5.28711 33.1989 5.36613 33.3897 5.50678 33.5303C5.64743 33.671 5.8382 33.75 6.03711 33.75H16.5371C16.736 33.75 16.9268 33.671 17.0674 33.5303C17.2081 33.3897 17.2871 33.1989 17.2871 33V30C17.2871 29.8011 17.2081 29.6103 17.0674 29.4697C16.9268 29.329 16.736 29.25 16.5371 29.25ZM15.7871 32.25H6.78711V30.75H15.7871V32.25Z" fill="white"/>
<path d="M30.7871 9.75C30.986 9.75 31.1768 9.67098 31.3174 9.53033C31.4581 9.38968 31.5371 9.19891 31.5371 9V7.5C31.5371 7.30109 31.4581 7.11032 31.3174 6.96967C31.1768 6.82902 30.986 6.75 30.7871 6.75C30.5882 6.75 30.3974 6.82902 30.2568 6.96967C30.1161 7.11032 30.0371 7.30109 30.0371 7.5V9C30.0371 9.19891 30.1161 9.38968 30.2568 9.53033C30.3974 9.67098 30.5882 9.75 30.7871 9.75Z" fill="white"/>
<path d="M39.7871 9.75C39.986 9.75 40.1768 9.67098 40.3174 9.53033C40.4581 9.38968 40.5371 9.19891 40.5371 9V7.5C40.5371 7.30109 40.4581 7.11032 40.3174 6.96967C40.1768 6.82902 39.986 6.75 39.7871 6.75C39.5882 6.75 39.3974 6.82902 39.2568 6.96967C39.1161 7.11032 39.0371 7.30109 39.0371 7.5V9C39.0371 9.19891 39.1161 9.38968 39.2568 9.53033C39.3974 9.67098 39.5882 9.75 39.7871 9.75Z" fill="white"/>
<path d="M3.03711 8.25H9.78711V11.25H9.03711C8.89783 11.25 8.76131 11.2888 8.64284 11.362C8.52436 11.4352 8.42862 11.54 8.36633 11.6646L6.11633 16.1646C6.05915 16.2789 6.03215 16.406 6.03789 16.5337C6.04363 16.6614 6.08193 16.7855 6.14913 16.8943C6.21634 17.003 6.31023 17.0928 6.42189 17.1551C6.53355 17.2173 6.65927 17.25 6.78711 17.25H14.2871C14.415 17.25 14.5407 17.2173 14.6523 17.1551C14.764 17.0928 14.8579 17.003 14.9251 16.8943C14.9923 16.7855 15.0306 16.6614 15.0363 16.5337C15.0421 16.406 15.0151 16.2789 14.9579 16.1646L12.7079 11.6646C12.6456 11.54 12.5499 11.4352 12.4314 11.362C12.3129 11.2888 12.1764 11.25 12.0371 11.25H11.2871V8.25H21.0371V11.25H20.2871C20.1478 11.25 20.0113 11.2888 19.8928 11.362C19.7744 11.4352 19.6786 11.54 19.6163 11.6646L17.3663 16.1646C17.3092 16.2789 17.2822 16.406 17.2879 16.5337C17.2936 16.6614 17.3319 16.7855 17.3991 16.8943C17.4663 17.003 17.5602 17.0928 17.6719 17.1551C17.7835 17.2173 17.9093 17.25 18.0371 17.25H25.5371C25.665 17.25 25.7907 17.2173 25.9023 17.1551C26.014 17.0928 26.1079 17.003 26.1751 16.8943C26.2423 16.7855 26.2806 16.6614 26.2863 16.5337C26.2921 16.406 26.2651 16.2789 26.2079 16.1646L23.9579 11.6646C23.8956 11.54 23.7999 11.4352 23.6814 11.362C23.5629 11.2888 23.4264 11.25 23.2871 11.25H22.5371V8.25H27.7871V14.25C27.7871 14.4489 27.8661 14.6397 28.0068 14.7803C28.1474 14.921 28.3382 15 28.5371 15H46.5371C46.736 15 46.9268 14.921 47.0674 14.7803C47.2081 14.6397 47.2871 14.4489 47.2871 14.25V4.5C47.2871 4.30109 47.2081 4.11032 47.0674 3.96967C46.9268 3.82902 46.736 3.75 46.5371 3.75H3.03711C2.8382 3.75 2.64743 3.82902 2.50678 3.96967C2.36613 4.11032 2.28711 4.30109 2.28711 4.5V7.5C2.28711 7.69891 2.36613 7.88968 2.50678 8.03033C2.64743 8.17098 2.8382 8.25 3.03711 8.25ZM13.0736 15.75H8.00061L9.50061 12.75H11.5736L13.0736 15.75ZM24.3236 15.75H19.2506L20.7506 12.75H22.8236L24.3236 15.75ZM29.2871 5.25H36.0371V11.25H29.2871V5.25ZM45.7871 13.5H29.2871V12.75H45.7871V13.5ZM45.7871 11.25H37.5371V5.25H45.7871V11.25ZM3.78711 5.25H27.7871V6.75H3.78711V5.25Z" fill="white"/>
<path d="M22.5371 30C22.9513 30 23.2871 29.6642 23.2871 29.25C23.2871 28.8358 22.9513 28.5 22.5371 28.5C22.1229 28.5 21.7871 28.8358 21.7871 29.25C21.7871 29.6642 22.1229 30 22.5371 30Z" fill="white"/>
<path d="M25.5371 30C25.9513 30 26.2871 29.6642 26.2871 29.25C26.2871 28.8358 25.9513 28.5 25.5371 28.5C25.1229 28.5 24.7871 28.8358 24.7871 29.25C24.7871 29.6642 25.1229 30 25.5371 30Z" fill="white"/>
<path d="M28.5371 30C28.9513 30 29.2871 29.6642 29.2871 29.25C29.2871 28.8358 28.9513 28.5 28.5371 28.5C28.1229 28.5 27.7871 28.8358 27.7871 29.25C27.7871 29.6642 28.1229 30 28.5371 30Z" fill="white"/>
</svg>
