<svg width="48" height="48" viewBox="0 0 48 48" fill="none" xmlns="http://www.w3.org/2000/svg">
<path d="M41.1751 29.7677C41.0386 29.0972 40.2451 29.1527 40.2076 29.1527H39.0001V10.7402H39.0676C40.5301 10.7402 41.7751 9.82448 42.2401 8.49023H45.0443C45.4651 8.49023 45.7943 8.15273 45.7943 7.74023C45.7943 7.31948 45.4651 6.99023 45.0443 6.99023H2.95508C2.54258 6.99023 2.20508 7.31948 2.20508 7.74023C2.20508 8.15273 2.54258 8.49023 2.95508 8.49023H5.77508C6.22508 9.80273 7.49258 10.7402 8.93258 10.7402H9.00008V29.1527H7.77008C7.28933 29.1445 6.90008 29.3777 6.82508 29.7677C6.27758 32.662 4.74758 35.2427 2.50508 37.0202C2.25758 37.2227 2.16008 37.5602 2.26508 37.8602C2.37008 38.1595 2.65508 38.3627 2.97008 38.3627H6.20258C6.29258 39.8627 7.81508 41.0095 9.75008 41.0095C11.6851 41.0095 13.2076 39.8627 13.2976 38.3627H16.5301C16.8451 38.3627 17.1301 38.1595 17.2351 37.8602C17.3401 37.5602 17.2426 37.222 16.9951 37.0202C14.7601 35.2427 13.2226 32.662 12.6751 29.7677C12.6001 29.377 12.3751 29.1797 11.7451 29.1527H10.5001V10.7402H10.5676C12.0301 10.7402 13.2751 9.82448 13.7401 8.49023H20.0251C20.4751 9.80273 21.7426 10.7402 23.1826 10.7402H23.2501V23.9027L21.8903 23.9065C21.5078 23.869 21.1418 24.1352 21.0751 24.5177C20.5276 27.412 18.9976 29.9927 16.7551 31.7702C16.5076 31.9727 16.4101 32.3102 16.5151 32.6102C16.6201 32.9095 16.9051 33.1127 17.2201 33.1127H20.4526C20.5426 34.6127 22.0651 35.7595 24.0001 35.7595C25.9351 35.7595 27.4576 34.6127 27.5476 33.1127H30.7801C31.0951 33.1127 31.3801 32.9095 31.4851 32.6102C31.5901 32.3102 31.4926 31.972 31.2451 31.7702C29.0026 29.9927 27.4726 27.412 26.9251 24.5177C26.8568 24.1502 26.4848 23.8945 26.1323 23.8945C26.1023 23.8945 24.7493 23.9027 24.7493 23.9027V10.7402H24.8168C26.2793 10.7402 27.5243 9.82448 27.9893 8.49023H34.2743C34.7243 9.80273 35.9918 10.7402 37.4318 10.7402H37.5001V29.1527H36.1951C36.1801 29.1527 35.4496 29.1332 35.3251 29.7677C34.7581 32.6582 33.2476 35.2427 31.0051 37.0202C30.7576 37.2227 30.6601 37.5602 30.7651 37.8602C30.8708 38.1595 31.1558 38.3627 31.4701 38.3627H34.7026C34.7926 39.8627 36.3151 41.0095 38.2501 41.0095C40.1851 41.0095 41.7076 39.8627 41.7976 38.3627H45.0301C45.3451 38.3627 45.6301 38.1595 45.7351 37.8602C45.8401 37.5602 45.7426 37.222 45.4951 37.0202C43.2526 35.2427 41.7623 32.6545 41.1751 29.7677ZM9.75008 39.5102C8.70758 39.5102 7.83008 39.0077 7.71008 38.3635H11.7901C11.6701 39.0077 10.7926 39.5102 9.75008 39.5102ZM11.3251 30.6527C11.8876 33.0002 13.0201 35.1452 14.6176 36.8627H4.88258C6.48008 35.1452 7.61258 33.0002 8.17508 30.6527H11.3251ZM10.5676 9.24023H8.93258C8.35508 9.24023 7.83008 8.97023 7.48508 8.53523H12.0226C11.6926 8.97023 11.1601 9.24023 10.5676 9.24023ZM24.0001 34.2602C22.9576 34.2602 22.0801 33.7577 21.9601 33.1135H26.0401C25.9201 33.7577 25.0426 34.2602 24.0001 34.2602ZM25.5751 25.4027C26.1301 27.7502 27.2708 29.8952 28.8683 31.6127H19.1326C20.7301 29.8952 21.8626 27.7502 22.4251 25.4027H25.5751ZM24.8176 9.24023H23.1826C22.6051 9.24023 22.0801 8.97023 21.7351 8.53523H26.2726C25.9426 8.97023 25.4101 9.24023 24.8176 9.24023ZM37.4326 9.24023C36.8543 9.24023 36.3301 8.97023 35.9851 8.53523H40.5226C40.1926 8.97023 39.6601 9.24023 39.0676 9.24023H37.4326ZM38.2501 39.5102C37.2076 39.5102 36.3301 39.0077 36.2101 38.3635H40.2893C40.1701 39.0077 39.2926 39.5102 38.2501 39.5102ZM33.3826 36.8627C34.9801 35.1452 36.1201 33.0002 36.6758 30.6527H39.8251C40.3801 33.0002 41.5208 35.1452 43.1183 36.8627H33.3826Z" fill="white"/>
</svg>
