<svg width="49" height="48" viewBox="0 0 49 48" fill="none" xmlns="http://www.w3.org/2000/svg">
<g clip-path="url(#clip0_2104_5027)">
<path d="M31.1616 39.918H5.41336C4.56109 39.918 3.86776 39.2247 3.86776 38.3724V34.5207C2.42242 34.2679 1.32056 33.0039 1.32056 31.486C1.32056 30.6615 1.64056 29.8881 2.22296 29.3057C2.80429 28.7244 3.57869 28.4033 4.40216 28.4033C4.87149 28.4033 5.32056 28.5057 5.73762 28.7073C6.79789 29.2183 7.48269 30.3095 7.48269 31.486V33.5009H29.0934V31.486C29.0934 30.3105 29.7782 29.2193 30.8374 28.7073C31.2587 28.5057 31.7078 28.4033 32.1739 28.4033C33.8731 28.4033 35.2555 29.7857 35.2555 31.486C35.2555 32.3084 34.9355 33.0817 34.3542 33.6641C33.8987 34.1185 33.328 34.4129 32.7083 34.5207V38.3713C32.7083 39.2247 32.015 39.918 31.1616 39.918ZM4.40216 29.4711C3.86349 29.4711 3.35789 29.6801 2.97709 30.0609C2.59629 30.4417 2.38722 30.9473 2.38722 31.4871C2.38722 32.5975 3.29069 33.502 4.40216 33.502C4.69656 33.502 4.93549 33.7409 4.93549 34.0353V38.3735C4.93549 38.6369 5.14989 38.8524 5.41442 38.8524H31.1627C31.4272 38.8524 31.6427 38.638 31.6427 38.3735V34.0353C31.6427 33.7409 31.8816 33.502 32.176 33.502C32.7136 33.502 33.2203 33.2929 33.6011 32.9121C33.9808 32.5313 34.1899 32.0257 34.1899 31.4881C34.1899 30.3767 33.2864 29.4721 32.175 29.4721C31.8699 29.4721 31.5755 29.5393 31.3003 29.6705C30.5974 30.0097 30.16 30.7063 30.16 31.4881V34.0364C30.16 34.3308 29.9211 34.5697 29.6267 34.5697H6.94936C6.65496 34.5697 6.41602 34.3308 6.41602 34.0364V31.4881C6.41602 30.718 5.96696 30.0044 5.27362 29.6705C5.00162 29.5372 4.70936 29.4711 4.40216 29.4711Z" fill="white"/>
<path d="M31.07 29.7227C30.7756 29.7227 30.5366 29.4838 30.5366 29.1894V24.8544C30.5366 24.5899 30.3212 24.3755 30.0577 24.3755H6.5185C6.25397 24.3755 6.03957 24.5899 6.03957 24.8544V29.1894C6.03957 29.4838 5.80063 29.7227 5.50623 29.7227C5.21183 29.7227 4.9729 29.4838 4.9729 29.1894V24.8544C4.9729 24.0022 5.66623 23.3088 6.5185 23.3088H30.0588C30.911 23.3088 31.6044 24.0022 31.6044 24.8544V29.1894C31.6033 29.4838 31.3654 29.7227 31.07 29.7227Z" fill="white"/>
<path d="M18.288 32.768C17.9936 32.768 17.7546 32.5291 17.7546 32.2347V25.6459C17.7546 25.3515 17.9936 25.1125 18.288 25.1125C18.5824 25.1125 18.8213 25.3515 18.8213 25.6459V32.2347C18.8213 32.5291 18.5824 32.768 18.288 32.768Z" fill="white"/>
<path d="M9.32908 42.0022H6.94935C6.65495 42.0022 6.41602 41.7633 6.41602 41.4689V39.3847C6.41602 39.0903 6.65495 38.8513 6.94935 38.8513H9.32908C9.62348 38.8513 9.86242 39.0903 9.86242 39.3847V41.4689C9.86242 41.7633 9.62455 42.0022 9.32908 42.0022ZM7.48268 40.9356H8.79575V39.918H7.48268V40.9356Z" fill="white"/>
<path d="M29.6267 42.0022H27.247C26.9526 42.0022 26.7136 41.7633 26.7136 41.4689V39.3847C26.7136 39.0903 26.9526 38.8513 27.247 38.8513H29.6267C29.9211 38.8513 30.16 39.0903 30.16 39.3847V41.4689C30.16 41.7633 29.9211 42.0022 29.6267 42.0022ZM27.7803 40.9356H29.0934V39.918H27.7803V40.9356Z" fill="white"/>
<path d="M46.9505 41.3622H37.9425C37.6481 41.3622 37.4092 41.1233 37.4092 40.8289V39.3025C37.4092 38.4203 38.127 37.7014 39.0102 37.7014H45.8838C46.766 37.7014 47.4849 38.4193 47.4849 39.3025V40.8289C47.4838 41.1233 47.246 41.3622 46.9505 41.3622ZM38.4758 40.2955H46.4172V39.3025C46.4172 39.0081 46.1772 38.7681 45.8828 38.7681H39.0092C38.7148 38.7681 38.4748 39.0081 38.4748 39.3025L38.4758 40.2955Z" fill="white"/>
<path d="M42.4459 38.768C42.1515 38.768 41.9126 38.5291 41.9126 38.2347V17.1893C41.9126 16.8949 42.1515 16.656 42.4459 16.656C42.7403 16.656 42.9793 16.8949 42.9793 17.1893V38.2347C42.9793 38.5301 42.7414 38.768 42.4459 38.768Z" fill="white"/>
<path d="M47.7206 17.7228H37.1734C37.0177 17.7228 36.8694 17.6545 36.7681 17.5361C36.6667 17.4177 36.6219 17.2609 36.6465 17.1073L37.9617 8.67215C38.0022 8.41295 38.2262 8.22095 38.4886 8.22095H46.4043C46.6667 8.22095 46.8907 8.41188 46.9313 8.67215L48.2465 17.1073C48.271 17.2609 48.2262 17.4177 48.1249 17.5361C48.0246 17.6545 47.8763 17.7228 47.7206 17.7228ZM37.7963 16.6561H47.0977L45.9489 9.28761H38.9462L37.7963 16.6561Z" fill="white"/>
<path d="M44.2795 9.28753C43.9904 9.28753 43.7536 9.05713 43.7461 8.76593C43.7301 8.0662 43.1467 7.4966 42.4459 7.4966C41.7451 7.4966 41.1616 8.0662 41.1456 8.76593C41.1392 9.06033 40.8971 9.295 40.6005 9.28646C40.3061 9.28006 40.0725 9.0358 40.08 8.7414C40.1099 7.46673 41.1712 6.42993 42.4469 6.42993C43.7227 6.42993 44.784 7.46673 44.8139 8.7414C44.8203 9.0358 44.5877 9.28006 44.2933 9.28646C44.288 9.28753 44.2837 9.28753 44.2795 9.28753Z" fill="white"/>
<path d="M24.5001 20.3925H12.0756C11.7812 20.3925 11.5422 20.1536 11.5422 19.8592V9.79627C11.5422 9.50187 11.7812 9.26294 12.0756 9.26294H24.5001C24.7945 9.26294 25.0334 9.50187 25.0334 9.79627V19.8592C25.0334 20.1536 24.7945 20.3925 24.5001 20.3925ZM12.6089 19.3259H23.9668V10.3296H12.6089V19.3259Z" fill="white"/>
<path d="M12.0757 18.2474C11.9413 18.2474 11.8069 18.1972 11.7035 18.0959C11.4923 17.89 11.488 17.553 11.6939 17.3418L15.1712 13.7748C15.2715 13.6724 15.4091 13.6138 15.5531 13.6138C15.6971 13.6138 15.8347 13.6714 15.9349 13.7748L19.0176 16.9375C19.2235 17.1487 19.2192 17.4858 19.008 17.6916C18.7968 17.8975 18.4597 17.8932 18.2539 17.682L15.5531 14.9108L12.4576 18.0863C12.3531 18.194 12.2144 18.2474 12.0757 18.2474Z" fill="white"/>
<path d="M24.5002 18.7711C24.3615 18.7711 24.2229 18.7178 24.1183 18.61L21.1157 15.5306L18.3775 18.3391C18.1717 18.5503 17.8346 18.5546 17.6234 18.3487C17.4122 18.1428 17.4079 17.8058 17.6138 17.5946L20.7338 14.3935C20.8341 14.29 20.9717 14.2324 21.1157 14.2324C21.2597 14.2324 21.3973 14.29 21.4975 14.3935L24.8821 17.8655C25.0879 18.0767 25.0837 18.4138 24.8725 18.6196C24.769 18.7199 24.6346 18.7711 24.5002 18.7711Z" fill="white"/>
<path d="M18.6987 14.3008C17.8539 14.3008 17.167 13.6138 17.167 12.769C17.167 11.9242 17.8539 11.2373 18.6987 11.2373C19.5435 11.2373 20.2305 11.9242 20.2305 12.769C20.2305 13.6138 19.5435 14.3008 18.6987 14.3008ZM18.6987 12.304C18.4427 12.304 18.2337 12.513 18.2337 12.769C18.2337 13.025 18.4427 13.2341 18.6987 13.2341C18.9547 13.2341 19.1638 13.025 19.1638 12.769C19.1638 12.513 18.9558 12.304 18.6987 12.304Z" fill="white"/>
<path d="M20.3445 10.3297C20.1675 10.3297 19.9936 10.2412 19.8923 10.0801L18.288 7.53182L16.6837 10.0801C16.5269 10.3297 16.1973 10.4044 15.9477 10.2476C15.6981 10.0908 15.6235 9.76116 15.7803 9.51156L17.8357 6.24756C17.9339 6.09289 18.1035 5.99902 18.2869 5.99902C18.4704 5.99902 18.6411 6.09289 18.7381 6.24756L20.7936 9.51156C20.9504 9.76116 20.8757 10.0897 20.6261 10.2476C20.5397 10.303 20.4416 10.3297 20.3445 10.3297Z" fill="white"/>
</g>
<defs>
<clipPath id="clip0_2104_5027">
<rect width="48" height="48" fill="white" transform="translate(0.787109)"/>
</clipPath>
</defs>
</svg>
