<svg width="24" height="16" viewBox="0 0 24 16" fill="none" xmlns="http://www.w3.org/2000/svg">
<path d="M1.08478 0.851562C0.569809 0.851562 0.152344 1.26901 0.152344 1.78399C0.152344 2.29895 0.569809 2.71643 1.08478 2.71643H22.2199C22.7349 2.71643 23.1523 2.29895 23.1523 1.78399C23.1523 1.26901 22.7349 0.851562 22.2199 0.851562H1.08478ZM1.08478 7.06778C0.569809 7.06778 0.152344 7.48523 0.152344 8.00021C0.152344 8.51516 0.569809 8.93264 1.08478 8.93264H22.2199C22.7349 8.93264 23.1523 8.51516 23.1523 8.00021C23.1523 7.48523 22.7349 7.06778 22.2199 7.06778H1.08478ZM1.08478 13.284C0.569809 13.284 0.152344 13.7014 0.152344 14.2164C0.152344 14.7314 0.569809 15.1489 1.08478 15.1489H22.2199C22.7349 15.1489 23.1523 14.7314 23.1523 14.2164C23.1523 13.7014 22.7349 13.284 22.2199 13.284H1.08478Z" fill="#1D1D1D"/>
</svg>
