<svg width="20" height="12" viewBox="0 0 20 12" fill="none" xmlns="http://www.w3.org/2000/svg">
<path d="M0.782609 0C0.350387 0 0 0.350374 0 0.782609C0 1.21482 0.350387 1.56522 0.782609 1.56522H18.5217C18.954 1.56522 19.3043 1.21482 19.3043 0.782609C19.3043 0.350374 18.954 0 18.5217 0H0.782609ZM0.782609 5.21739C0.350387 5.21739 0 5.56777 0 6C0 6.43221 0.350387 6.78261 0.782609 6.78261H18.5217C18.954 6.78261 19.3043 6.43221 19.3043 6C19.3043 5.56777 18.954 5.21739 18.5217 5.21739H0.782609ZM0.782609 10.4348C0.350387 10.4348 0 10.7852 0 11.2174C0 11.6496 0.350387 12 0.782609 12H18.5217C18.954 12 19.3043 11.6496 19.3043 11.2174C19.3043 10.7852 18.954 10.4348 18.5217 10.4348H0.782609Z" fill="white"/>
</svg>
