<svg xmlns:xlink="http://www.w3.org/1999/xlink" xmlns="http://www.w3.org/2000/svg" width="40" height="40" viewBox="0 0 40 40" fill="none"><path d="M17.0199 3.33003C17.3951 2.91102 17.8544 2.57584 18.3679 2.34637C18.8814 2.1169 19.4375 1.99829 19.9999 1.99829C20.5624 1.99829 21.1185 2.1169 21.6319 2.34637C22.1454 2.57584 22.6048 2.91102 22.9799 3.33003L24.3799 4.89403C24.7801 5.34103 25.2756 5.69229 25.8299 5.92182C26.3841 6.15136 26.9829 6.25327 27.5819 6.22003L29.6819 6.10403C30.2436 6.07307 30.8055 6.16093 31.3309 6.36188C31.8564 6.56283 32.3335 6.87234 32.7312 7.27021C33.1289 7.66809 33.4382 8.14537 33.6389 8.67089C33.8396 9.19641 33.9272 9.75836 33.8959 10.32L33.7799 12.418C33.747 13.0167 33.8491 13.6151 34.0786 14.169C34.3081 14.7229 34.6592 15.2181 35.1059 15.618L36.6699 17.018C37.0893 17.3932 37.4247 17.8527 37.6544 18.3663C37.8841 18.88 38.0028 19.4364 38.0028 19.999C38.0028 20.5617 37.8841 21.1181 37.6544 21.6317C37.4247 22.1454 37.0893 22.6048 36.6699 22.98L35.1059 24.38C34.6589 24.7802 34.3077 25.2757 34.0781 25.83C33.8486 26.3842 33.7467 26.983 33.7799 27.582L33.8959 29.682C33.9269 30.2437 33.839 30.8056 33.6381 31.3311C33.4371 31.8565 33.1276 32.3336 32.7297 32.7313C32.3319 33.129 31.8546 33.4383 31.3291 33.639C30.8036 33.8397 30.2416 33.9273 29.6799 33.896L27.5819 33.78C26.9833 33.7471 26.3849 33.8492 25.831 34.0787C25.2771 34.3082 24.7818 34.6593 24.3819 35.106L22.9819 36.67C22.6067 37.0894 22.1473 37.4248 21.6336 37.6545C21.12 37.8842 20.5636 38.0029 20.0009 38.0029C19.4382 38.0029 18.8819 37.8842 18.3682 37.6545C17.8546 37.4248 17.3951 37.0894 17.0199 36.67L15.6199 35.106C15.2198 34.659 14.7243 34.3078 14.17 34.0782C13.6157 33.8487 13.0169 33.7468 12.4179 33.78L10.3179 33.896C9.75624 33.927 9.19434 33.8391 8.66891 33.6382C8.14348 33.4372 7.66635 33.1277 7.26866 32.7299C6.87098 32.332 6.56169 31.8547 6.36099 31.3292C6.16029 30.8037 6.0727 30.2417 6.10393 29.68L6.21993 27.582C6.25287 26.9834 6.1508 26.385 5.92128 25.8311C5.69175 25.2772 5.34065 24.7819 4.89393 24.382L3.32993 22.982C2.91059 22.6068 2.57513 22.1474 2.34546 21.6337C2.11578 21.1201 1.99707 20.5637 1.99707 20.001C1.99707 19.4384 2.11578 18.882 2.34546 18.3683C2.57513 17.8547 2.91059 17.3952 3.32993 17.02L4.89393 15.62C5.34092 15.2199 5.69219 14.7244 5.92172 14.1701C6.15125 13.6158 6.25317 13.017 6.21993 12.418L6.10393 10.318C6.07326 9.75651 6.16134 9.19482 6.36241 8.66964C6.56349 8.14445 6.87305 7.66756 7.27089 7.2701C7.66873 6.87264 8.14591 6.56353 8.67129 6.36295C9.19667 6.16237 9.75843 6.07483 10.3199 6.10603L12.4179 6.22203C13.0166 6.25497 13.615 6.1529 14.1689 5.92338C14.7228 5.69386 15.218 5.34275 15.6179 4.89603L17.0199 3.33003Z" stroke="#FF7E20" stroke-width="3px" fill="none"/><path d="M15 15H15.02V15.02H15V15ZM25 25H25.02V25.02H25V25Z" stroke="#FF7E20" stroke-width="3px" stroke-linejoin="round" fill="none"/><path d="M26 14L14 26" stroke="#FF7E20" stroke-width="3px" stroke-linecap="round" stroke-linejoin="round" fill="none"/></svg>