<svg width="58" height="56" viewBox="0 0 58 56" fill="none" xmlns="http://www.w3.org/2000/svg">
<path d="M15.5155 35.6275C16.0571 35.3087 16.2426 34.6012 15.9301 34.0485C15.6173 33.4963 14.9243 33.3067 14.3827 33.6255C13.8411 33.9447 13.6552 34.6522 13.9681 35.2044C14.2805 35.7571 14.9739 35.9467 15.5155 35.6275Z" fill="#525252"/>
<path d="M10.8732 43.6051L16.578 53.6877C17.8091 55.8658 20.5783 56.6722 22.7682 55.3804C24.9352 54.1027 25.6799 51.2776 24.4263 49.0648L21.0278 43.0579L23.9709 41.3241C24.5126 41.0045 24.6984 40.2979 24.3856 39.7452L22.9125 37.1418C23.0881 37.107 24.2431 36.8759 44.6103 32.7992C47.1281 32.6597 48.6366 29.85 47.3649 27.6037L43.6 20.9503L46.0059 17.2322C46.2422 16.8664 46.2564 16.3964 46.0418 16.0172L43.7761 12.0132C43.5615 11.6339 43.154 11.4118 42.727 11.4375L38.3687 11.7044L34.1893 4.3177C33.5839 3.24763 32.4993 2.59972 31.2886 2.58437C31.274 2.58392 31.2599 2.58392 31.2453 2.58392C30.0753 2.58392 29.0133 3.1781 28.384 4.1827L13.5858 23.4178L3.96527 29.0851C0.181409 31.3133 -1.12929 36.2663 1.06288 40.1376C3.06566 43.6774 7.28804 45.0698 10.8732 43.6051ZM22.4646 50.2211C23.0904 51.3255 22.72 52.7387 21.6345 53.3785C20.5455 54.021 19.1587 53.6263 18.5401 52.5323L12.876 42.5211L16.8001 40.2094C23.3554 51.7959 22.3593 50.0355 22.4646 50.2211ZM19.895 41.0555L18.7622 39.0535L20.7243 37.8976L21.8571 39.8996L19.895 41.0555ZM42.1641 13.7876L43.7297 16.5544L42.3336 18.7117L39.6352 13.9425L42.1641 13.7876ZM30.2789 5.45008C30.5829 4.94259 31.0652 4.89022 31.2608 4.89563C31.4541 4.89789 31.936 4.9593 32.2268 5.47311L45.4028 28.7596C45.832 29.5177 45.3103 30.4708 44.4496 30.4925C44.2952 30.4961 44.224 30.5245 43.8284 30.5999L29.8908 5.96796C30.1833 5.58418 30.2209 5.54716 30.2789 5.45008ZM28.3832 7.9275L41.4782 31.0704L21.715 35.0256L15.7058 24.4057L28.3832 7.9275ZM3.02495 38.9817C2.52757 38.1035 2.26472 37.1066 2.26472 36.0979C2.26472 34.0364 3.35063 32.1165 5.09809 31.0871L13.9274 25.8857L19.5915 35.8957L10.7622 41.0975C8.05712 42.6904 4.58655 41.7413 3.02495 38.9817Z" fill="#525252"/>
<path d="M12.006 36.3602C11.6932 35.8076 11.0002 35.618 10.4586 35.9372L8.4965 37.093C7.95576 37.4118 7.26147 37.2217 6.94906 36.67C6.63621 36.1173 5.94325 35.9277 5.40162 36.2469C4.86 36.5661 4.67414 37.2732 4.987 37.8258C5.91935 39.4738 7.99913 40.0549 9.62932 39.095L11.5914 37.9392C12.133 37.6199 12.3189 36.9133 12.006 36.3602Z" fill="#525252"/>
<path d="M56.3163 5.05641L50.004 8.64047C49.4575 8.9511 49.2606 9.655 49.565 10.2126C49.8686 10.7698 50.558 10.9716 51.1058 10.6605L57.4177 7.07645C57.9647 6.76581 58.1611 6.06191 57.8567 5.5043C57.5527 4.94624 56.8628 4.74577 56.3163 5.05641Z" fill="#525252"/>
<path d="M55.6543 17.0276L51.2775 15.8311C50.673 15.6659 50.0517 16.0316 49.8898 16.6484C49.7278 17.2651 50.0867 17.8986 50.6911 18.0639L55.0684 19.2603C55.6764 19.427 56.2946 19.0554 56.4557 18.4431C56.6176 17.8264 56.2587 17.1924 55.6543 17.0276Z" fill="#525252"/>
<path d="M44.6555 0.856926L43.4815 5.32323C43.3195 5.93999 43.678 6.57345 44.2824 6.73916C44.8864 6.90396 45.5077 6.53914 45.6701 5.92193L46.8436 1.45562C47.0056 0.838866 46.6472 0.20495 46.0427 0.0396984C45.4387 -0.125553 44.8174 0.240167 44.6555 0.856926Z" fill="#525252"/>
</svg>
