<svg width="40" height="40" viewBox="0 0 40 40" fill="none" xmlns="http://www.w3.org/2000/svg">
<g clip-path="url(#clip0_2169_5449)">
<g clip-path="url(#clip1_2169_5449)">
<path d="M38.7757 9.73178L24.6664 2.38752C24.4581 2.27905 24.224 2.22217 23.9862 2.22217C23.7484 2.22217 23.5145 2.27905 23.3062 2.38752L9.19686 9.73178C8.97565 9.84706 8.79117 10.0164 8.6627 10.2222C8.53421 10.4279 8.46643 10.6625 8.46643 10.9015C8.46643 11.1405 8.53421 11.3751 8.6627 11.5809C8.79117 11.7866 8.97565 11.956 9.19686 12.0713L22.5754 19.0349V33.3482L18.2917 31.1183L16.9316 33.4564L23.3062 36.7746C23.5145 36.8834 23.7484 36.9404 23.9862 36.9404C24.2242 36.9404 24.4581 36.8834 24.6664 36.7746L38.7757 29.4305C38.997 29.3152 39.1816 29.1459 39.3101 28.9401C39.4387 28.7343 39.5065 28.4996 39.5065 28.2607V10.9015C39.5065 10.6625 39.4387 10.4278 39.3101 10.2221C39.1816 10.0163 38.997 9.847 38.7757 9.73178ZM23.9862 5.0822L35.168 10.9015L23.9862 16.7208L12.8046 10.9015L23.9862 5.0822ZM36.6847 27.4715L25.3972 33.3469V19.0336L36.6847 13.1582V27.4715Z" fill="#1D1D1D"/>
<path d="M11.2875 19.5808H0V16.9102H11.2875V19.5808Z" fill="#1D1D1D"/>
<path d="M14.1094 30.2635H2.8219V27.593H14.1094V30.2635Z" fill="#1D1D1D"/>
<path d="M16.9305 24.9224H5.64307V22.2517H16.9305V24.9224Z" fill="#1D1D1D"/>
</g>
</g>
<defs>
<clipPath id="clip0_2169_5449">
<rect width="40" height="40" fill="white"/>
</clipPath>
<clipPath id="clip1_2169_5449">
<rect width="40" height="35.5556" fill="white" transform="translate(0 2.22217)"/>
</clipPath>
</defs>
</svg>
