<svg xmlns:xlink="http://www.w3.org/1999/xlink" xmlns="http://www.w3.org/2000/svg" width="44" height="35" viewBox="0 0 44 35" fill="none"><path d="M42 15.483V28.625C42 29.6859 41.5786 30.7033 40.8284 31.4534C40.0783 32.2036 39.0609 32.625 38 32.625H12C10.9391 32.625 9.92172 32.2036 9.17157 31.4534C8.42143 30.7033 8 29.6859 8 28.625V25.625M42 15.483V12.625C42 11.5641 41.5786 10.5467 40.8284 9.79657C40.0783 9.04643 39.0609 8.625 38 8.625H36M42 15.483H36" stroke="#FF7E20" stroke-width="3px" stroke-linecap="round" stroke-linejoin="round" fill="none"/><path d="M36 8.625V21.625C36 22.6859 35.5786 23.7033 34.8284 24.4534C34.0783 25.2036 33.0609 25.625 32 25.625H6C4.93913 25.625 3.92172 25.2036 3.17157 24.4534C2.42143 23.7033 2 22.6859 2 21.625V5.625C2 4.56413 2.42143 3.54672 3.17157 2.79657C3.92172 2.04643 4.93913 1.625 6 1.625H32C33.0609 1.625 34.0783 2.04643 34.8284 2.79657C35.5786 3.54672 36 4.56413 36 5.625V8.625ZM36 8.625H9" stroke="#FF7E20" stroke-width="3px" stroke-linecap="round" stroke-linejoin="round" fill="none"/></svg>