<svg width="40" height="40" viewBox="0 0 40 40" fill="none" xmlns="http://www.w3.org/2000/svg">
<g clip-path="url(#clip0_2169_5458)">
<g clip-path="url(#clip1_2169_5458)">
<path d="M37.4 20.7625L33.65 12.0125C33.5543 11.7866 33.3942 11.5938 33.1897 11.4582C32.9852 11.3226 32.7453 11.2502 32.5 11.25H28.75V8.75C28.75 8.41848 28.6183 8.10053 28.3838 7.86612C28.1495 7.6317 27.8315 7.5 27.5 7.5H3.75C3.41848 7.5 3.10053 7.6317 2.86612 7.86612C2.6317 8.10053 2.5 8.41848 2.5 8.75V30C2.5 30.3315 2.6317 30.6495 2.86612 30.8838C3.10053 31.1183 3.41848 31.25 3.75 31.25H6.425C6.71285 32.3092 7.34125 33.2443 8.21325 33.911C9.08523 34.5775 10.1524 34.9388 11.25 34.9388C12.3476 34.9388 13.4148 34.5775 14.2867 33.911C15.1587 33.2443 15.7872 32.3092 16.075 31.25H23.925C24.2128 32.3092 24.8413 33.2443 25.7132 33.911C26.5852 34.5775 27.6523 34.9388 28.75 34.9388C29.8477 34.9388 30.9148 34.5775 31.7868 33.911C32.6587 33.2443 33.2872 32.3092 33.575 31.25H36.25C36.5815 31.25 36.8995 31.1183 37.1338 30.8838C37.3683 30.6495 37.5 30.3315 37.5 30V21.25C37.4997 21.0825 37.4657 20.9167 37.4 20.7625ZM28.75 13.75H31.675L34.35 20H28.75V13.75ZM11.25 32.5C10.7555 32.5 10.2722 32.3533 9.86108 32.0787C9.44995 31.804 9.12952 31.4135 8.9403 30.9567C8.75108 30.4998 8.70157 29.9972 8.79803 29.5123C8.8945 29.0273 9.1326 28.5818 9.48223 28.2322C9.83187 27.8827 10.2773 27.6445 10.7623 27.548C11.2472 27.4515 11.7499 27.5012 12.2067 27.6903C12.6635 27.8795 13.054 28.2 13.3287 28.611C13.6034 29.0222 13.75 29.5055 13.75 30C13.75 30.663 13.4866 31.299 13.0178 31.7678C12.5489 32.2367 11.913 32.5 11.25 32.5ZM23.925 28.75H16.075C15.7872 27.6908 15.1587 26.7557 14.2867 26.0892C13.4148 25.4225 12.3476 25.0613 11.25 25.0613C10.1524 25.0613 9.08523 25.4225 8.21325 26.0892C7.34125 26.7557 6.71285 27.6908 6.425 28.75H5V10H26.25V25.7C25.6808 26.0303 25.1825 26.4698 24.7835 26.9932C24.3845 27.5167 24.0927 28.1137 23.925 28.75ZM28.75 32.5C28.2555 32.5 27.7722 32.3533 27.361 32.0787C26.95 31.804 26.6295 31.4135 26.4403 30.9567C26.251 30.4998 26.2015 29.9972 26.298 29.5123C26.3945 29.0273 26.6327 28.5818 26.9822 28.2322C27.3318 27.8827 27.7773 27.6445 28.2623 27.548C28.7472 27.4515 29.2498 27.5012 29.7067 27.6903C30.1635 27.8795 30.554 28.2 30.8287 28.611C31.1033 29.0222 31.25 29.5055 31.25 30C31.25 30.663 30.9867 31.299 30.5178 31.7678C30.049 32.2367 29.413 32.5 28.75 32.5ZM35 28.75H33.575C33.2985 27.6793 32.6752 26.7307 31.802 26.0522C30.929 25.3737 29.8557 25.0037 28.75 25V22.5H35V28.75Z" fill="#1D1D1D"/>
</g>
</g>
<defs>
<clipPath id="clip0_2169_5458">
<rect width="40" height="40" fill="white"/>
</clipPath>
<clipPath id="clip1_2169_5458">
<rect width="40" height="40" fill="white"/>
</clipPath>
</defs>
</svg>
