<svg width="24" height="24" viewBox="0 0 24 24" fill="none" xmlns="http://www.w3.org/2000/svg">
<g clip-path="url(#clip0_3_3179)">
<path d="M6.2713 14.9754C6.48608 14.8515 6.55961 14.5765 6.43572 14.3617C6.31166 14.1471 6.03687 14.0734 5.82208 14.1973C5.6073 14.3214 5.5336 14.5963 5.65766 14.8109C5.78155 15.0257 6.05652 15.0994 6.2713 14.9754Z" fill="#1D1D1D"/>
<path d="M4.43032 18.0759L6.69256 21.9944C7.18073 22.8409 8.27886 23.1543 9.14729 22.6523C10.0066 22.1557 10.3019 21.0577 9.8048 20.1977L8.45715 17.8632L9.62424 17.1893C9.83902 17.0651 9.91272 16.7905 9.78866 16.5757L9.2045 15.5639C9.27416 15.5504 9.73216 15.4606 17.8088 13.8762C18.8073 13.822 19.4054 12.73 18.9011 11.857L17.4082 9.27116L18.3622 7.82612C18.4559 7.68398 18.4616 7.50131 18.3765 7.35391L17.478 5.79779C17.3929 5.65039 17.2313 5.56406 17.062 5.57406L15.3337 5.67776L13.6763 2.80698C13.4363 2.3911 13.0062 2.13929 12.5261 2.13332C12.5203 2.13315 12.5147 2.13315 12.5089 2.13315C12.0449 2.13315 11.6238 2.36407 11.3743 2.75451L5.50599 10.2301L1.69096 12.4327C0.190468 13.2987 -0.329292 15.2237 0.540017 16.7282C1.33422 18.1039 3.00861 18.6451 4.43032 18.0759ZM9.02692 20.6471C9.27504 21.0763 9.12817 21.6256 8.69772 21.8742C8.26588 22.1239 7.71594 21.9705 7.47062 21.5454L5.22453 17.6545L6.78065 16.7561C9.38015 21.2592 8.98515 20.575 9.02692 20.6471ZM8.00793 17.0849L7.55871 16.3069L8.33677 15.8577L8.78599 16.6357L8.00793 17.0849ZM16.8388 6.48741L17.4596 7.56273L16.906 8.40115L15.8359 6.5476L16.8388 6.48741ZM12.1256 3.24707C12.2462 3.04984 12.4375 3.02948 12.515 3.03159C12.5917 3.03246 12.7828 3.05633 12.8981 3.25602L18.1231 12.3062C18.2933 12.6008 18.0864 12.9713 17.7451 12.9797C17.6839 12.9811 17.6556 12.9921 17.4987 13.0214L11.9718 3.44834C12.0877 3.29919 12.1027 3.2848 12.1256 3.24707ZM11.3739 4.20991L16.5668 13.2043L8.72966 14.7415L6.3467 10.6141L11.3739 4.20991ZM1.31808 16.279C1.12084 15.9377 1.01661 15.5502 1.01661 15.1582C1.01661 14.357 1.44723 13.6109 2.14018 13.2108L5.64146 11.1893L7.88755 15.0796L4.38628 17.1013C3.31359 17.7203 1.93733 17.3515 1.31808 16.279Z" fill="#1D1D1D"/>
<path d="M4.87954 15.2602C4.75548 15.0454 4.48068 14.9717 4.2659 15.0957L3.48784 15.545C3.27341 15.6688 2.99809 15.595 2.8742 15.3805C2.75014 15.1658 2.47534 15.0921 2.26056 15.2161C2.04578 15.3402 1.97208 15.615 2.09614 15.8298C2.46587 16.4702 3.2906 16.6961 3.93706 16.323L4.71512 15.8738C4.9299 15.7497 5.0036 15.4751 4.87954 15.2602Z" fill="#1D1D1D"/>
<path d="M22.4508 3.09406L19.9477 4.48699C19.731 4.60772 19.6529 4.88129 19.7736 5.098C19.894 5.31454 20.1674 5.39298 20.3846 5.27207L22.8876 3.87914C23.1045 3.75842 23.1824 3.48485 23.0617 3.26814C22.9411 3.05125 22.6675 2.97334 22.4508 3.09406Z" fill="#1D1D1D"/>
<path d="M22.1883 7.74663L20.4527 7.28162C20.213 7.21739 19.9666 7.35953 19.9024 7.59923C19.8382 7.83893 19.9805 8.08512 20.2202 8.14935L21.956 8.61436C22.1971 8.67911 22.4422 8.53469 22.5061 8.29675C22.5703 8.05705 22.428 7.81068 22.1883 7.74663Z" fill="#1D1D1D"/>
<path d="M17.8267 1.46196L17.3611 3.19777C17.2969 3.43747 17.439 3.68366 17.6787 3.74806C17.9183 3.81211 18.1646 3.67033 18.229 3.43045L18.6944 1.69464C18.7586 1.45494 18.6165 1.20857 18.3768 1.14435C18.1373 1.08013 17.8909 1.22226 17.8267 1.46196Z" fill="#1D1D1D"/>
</g>
<defs>
<clipPath id="clip0_3_3179">
<rect width="23" height="23" fill="white" transform="translate(0.11853 0.5)"/>
</clipPath>
</defs>
</svg>
