<svg width="48" height="48" viewBox="0 0 48 48" fill="none" xmlns="http://www.w3.org/2000/svg">
<path d="M16.641 26.74C15.697 26.74 14.889 26.16 14.589 25.264L14.113 23.84C13.573 22.236 12.293 20.956 10.689 20.416L9.26897 19.94C8.37297 19.64 7.79297 18.836 7.79297 17.888C7.79297 16.94 8.37297 16.136 9.26897 15.836L10.689 15.36C12.293 14.82 13.573 13.54 14.113 11.936L14.589 10.516C14.889 9.62004 15.697 9.04004 16.641 9.04004C17.585 9.04004 18.393 9.62004 18.693 10.516L19.169 11.936C19.709 13.54 20.985 14.82 22.593 15.36L24.017 15.836C24.913 16.136 25.493 16.94 25.493 17.888C25.493 18.836 24.913 19.64 24.017 19.94L22.593 20.416C20.989 20.956 19.709 22.236 19.169 23.84L18.693 25.264C18.393 26.16 17.585 26.74 16.641 26.74ZM16.641 10.64C16.545 10.64 16.225 10.668 16.105 11.024L15.629 12.448C14.933 14.528 13.273 16.184 11.197 16.88L9.77697 17.356C9.42097 17.476 9.39297 17.796 9.39297 17.892C9.39297 17.988 9.42097 18.308 9.77697 18.428L11.197 18.904C13.277 19.6 14.933 21.256 15.629 23.336L16.105 24.76C16.225 25.116 16.545 25.144 16.641 25.144C16.737 25.144 17.057 25.116 17.173 24.76L17.649 23.336C18.345 21.256 20.001 19.6 22.081 18.904L23.505 18.428C23.861 18.308 23.889 17.988 23.889 17.892C23.889 17.796 23.861 17.476 23.505 17.356L22.081 16.88C20.001 16.184 18.345 14.524 17.649 12.448L17.173 11.024C17.053 10.668 16.737 10.64 16.641 10.64Z" fill="#525252"/>
<path d="M31.8328 39.0963C31.1128 39.0963 30.5008 38.6563 30.2728 37.9763L29.9768 37.0963C29.6728 36.1923 28.9528 35.4723 28.0488 35.1683L27.1688 34.8723C26.4888 34.6443 26.0488 34.0323 26.0488 33.3123C26.0488 32.5923 26.4888 31.9803 27.1688 31.7523L28.0488 31.4563C28.9528 31.1523 29.6728 30.4323 29.9768 29.5283L30.2728 28.6483C30.5008 27.9683 31.1128 27.5283 31.8328 27.5283C32.5528 27.5283 33.1648 27.9683 33.3928 28.6483L33.6888 29.5283C33.9928 30.4323 34.7128 31.1523 35.6168 31.4563L36.4968 31.7523C37.1768 31.9803 37.6168 32.5923 37.6168 33.3123C37.6168 34.0323 37.1768 34.6443 36.4968 34.8723L35.6168 35.1683C34.7128 35.4723 33.9928 36.1923 33.6888 37.0963L33.3928 37.9763C33.1648 38.6563 32.5528 39.0963 31.8328 39.0963ZM31.8328 29.1323C31.8008 29.1323 31.7968 29.1403 31.7928 29.1603L31.4968 30.0403C31.0368 31.4163 29.9368 32.5123 28.5608 32.9763L27.6808 33.2723C27.6608 33.2803 27.6488 33.2803 27.6488 33.3123C27.6488 33.3443 27.6568 33.3483 27.6808 33.3523L28.5608 33.6483C29.9368 34.1083 31.0328 35.2083 31.4968 36.5843L31.7928 37.4643C31.8088 37.5083 31.8608 37.5083 31.8768 37.4643L32.1728 36.5843C32.6328 35.2083 33.7328 34.1123 35.1088 33.6483L35.9888 33.3523C36.0088 33.3443 36.0208 33.3443 36.0208 33.3123C36.0208 33.2803 36.0128 33.2763 35.9888 33.2723L35.1088 32.9763C33.7328 32.5163 32.6368 31.4163 32.1728 30.0403L31.8768 29.1603C31.8688 29.1443 31.8648 29.1323 31.8328 29.1323Z" fill="#525252"/>
<path d="M31.4878 20.0323C32.1219 20.0323 32.6358 19.5184 32.6358 18.8843C32.6358 18.2503 32.1219 17.7363 31.4878 17.7363C30.8538 17.7363 30.3398 18.2503 30.3398 18.8843C30.3398 19.5184 30.8538 20.0323 31.4878 20.0323Z" fill="#525252"/>
<path d="M18.4488 34.8126C19.0828 34.8126 19.5968 34.2986 19.5968 33.6646C19.5968 33.0306 19.0828 32.5166 18.4488 32.5166C17.8148 32.5166 17.3008 33.0306 17.3008 33.6646C17.3008 34.2986 17.8148 34.8126 18.4488 34.8126Z" fill="#525252"/>
</svg>
