<svg width="48" height="48" viewBox="0 0 48 48" fill="none" xmlns="http://www.w3.org/2000/svg">
<g clip-path="url(#clip0_1580_12)">
<path d="M44.566 8.65723H3.43399C1.53908 8.65723 0 10.2252 0 12.1202C0 14.0151 1.53908 15.5831 3.43399 15.5831H12.1011L19.8254 23.2882L8.13803 34.9658C7.76265 35.3408 7.76265 35.9469 8.13803 36.3223L10.9562 39.1404C11.3315 39.5158 11.9376 39.5158 12.3126 39.1404L24 27.4531L35.6776 39.1311C36.053 39.5061 36.6591 39.5061 37.0341 39.1311L39.8526 36.3125C40.2276 35.9375 40.2276 35.3315 39.8526 34.9561L28.1746 23.2882L35.8989 15.5831H44.566C46.4609 15.5831 48 14.0151 48 12.1202C48 10.2252 46.4512 8.65723 44.566 8.65723ZM11.6393 37.0918L10.1866 35.6392L21.1913 24.6349L22.6435 26.0872L11.6393 37.0918ZM37.8228 35.6584L36.3705 37.1012L14.8234 15.5831H17.7377L37.8228 35.6584ZM20.4507 15.5831H27.54L24 19.1324L20.4507 15.5831ZM26.8185 21.9318L25.3565 20.4791L30.2623 15.5831H33.1766L26.8185 21.9318ZM44.566 13.6592H3.43399C2.58742 13.6592 1.89491 12.9667 1.89491 12.1202C1.89491 11.2736 2.58742 10.5811 3.43399 10.5811H44.5562C45.4028 10.5811 46.0953 11.2736 46.0953 12.1202C46.0953 12.9667 45.4126 13.6592 44.566 13.6592Z" fill="white"/>
</g>
<defs>
<clipPath id="clip0_1580_12">
<rect width="48" height="48" fill="white"/>
</clipPath>
</defs>
</svg>
