<svg width="49" height="32" viewBox="0 0 49 32" fill="none" xmlns="http://www.w3.org/2000/svg">
<path d="M45.3531 0.657227H4.2211C2.32619 0.657227 0.787109 2.22524 0.787109 4.12015C0.787109 6.01507 2.32619 7.58308 4.2211 7.58308H12.8882L20.6125 15.2882L8.92514 26.9658C8.54976 27.3408 8.54976 27.9469 8.92514 28.3223L11.7433 31.1404C12.1186 31.5158 12.7247 31.5158 13.0997 31.1404L24.7871 19.4531L36.4647 31.1311C36.8401 31.5061 37.4462 31.5061 37.8212 31.1311L40.6397 28.3125C41.0147 27.9375 41.0147 27.3315 40.6397 26.9561L28.9617 15.2882L36.686 7.58308H45.3531C47.248 7.58308 48.7871 6.01507 48.7871 4.12015C48.7871 2.22524 47.2383 0.657227 45.3531 0.657227ZM12.4264 29.0918L10.9737 27.6392L21.9784 16.6349L23.4306 18.0872L12.4264 29.0918ZM38.6099 27.6584L37.1576 29.1012L15.6105 7.58308H18.5248L38.6099 27.6584ZM21.2378 7.58308H28.3271L24.7871 11.1324L21.2378 7.58308ZM27.6056 13.9318L26.1436 12.4791L31.0494 7.58308H33.9637L27.6056 13.9318ZM45.3531 5.65923H4.2211C3.37453 5.65923 2.68202 4.96672 2.68202 4.12015C2.68202 3.27358 3.37453 2.58107 4.2211 2.58107H45.3433C46.1899 2.58107 46.8824 3.27358 46.8824 4.12015C46.8824 4.96672 46.1997 5.65923 45.3531 5.65923Z" fill="#525252"/>
</svg>
