<svg width="48" height="48" viewBox="0 0 48 48" fill="none" xmlns="http://www.w3.org/2000/svg">
<path d="M19.875 45.1902C19.7258 45.1902 19.5827 45.1309 19.4773 45.0255C19.3718 44.92 19.3125 44.7769 19.3125 44.6277V3.38184C19.3125 3.23265 19.3718 3.08958 19.4773 2.98409C19.5827 2.8786 19.7258 2.81934 19.875 2.81934C20.0242 2.81934 20.1673 2.8786 20.2727 2.98409C20.3782 3.08958 20.4375 3.23265 20.4375 3.38184V44.6277C20.4375 44.7769 20.3782 44.92 20.2727 45.0255C20.1673 45.1309 20.0242 45.1902 19.875 45.1902Z" fill="white"/>
<path d="M44.2121 47.6281H3.78711C3.14089 47.6273 2.52136 47.3702 2.06441 46.9133C1.60747 46.4563 1.3504 45.8368 1.34961 45.1906V2.80957C1.3504 2.16335 1.60747 1.54382 2.06441 1.08687C2.52136 0.629926 3.14089 0.372864 3.78711 0.37207H44.2121C44.8583 0.372864 45.4779 0.629926 45.9348 1.08687C46.3918 1.54382 46.6488 2.16335 46.6496 2.80957V45.1906C46.6488 45.8368 46.3918 46.4563 45.9348 46.9133C45.4779 47.3702 44.8583 47.6273 44.2121 47.6281ZM3.78711 1.49707C3.43917 1.49757 3.10561 1.63601 2.85958 1.88204C2.61355 2.12807 2.47511 2.46163 2.47461 2.80957V45.1906C2.47461 45.5387 2.61289 45.8725 2.85903 46.1186C3.10517 46.3648 3.43901 46.5031 3.78711 46.5031H44.2121C44.5602 46.5031 44.894 46.3648 45.1402 46.1186C45.3863 45.8725 45.5246 45.5387 45.5246 45.1906V2.80957C45.5241 2.46163 45.3857 2.12807 45.1396 1.88204C44.8936 1.63601 44.5601 1.49757 44.2121 1.49707H3.78711Z" fill="white"/>
<path d="M43.345 2.81445H4.6532C4.39773 2.81465 4.15277 2.9162 3.97208 3.09682C3.7914 3.27743 3.68975 3.52235 3.68945 3.77783V44.2216C3.68975 44.4771 3.7914 44.722 3.97208 44.9026C4.15277 45.0832 4.39773 45.1848 4.6532 45.185H19.8235C19.8403 45.185 19.8568 45.1902 19.8741 45.1902C19.8913 45.1902 19.9078 45.1865 19.9247 45.185H43.345C43.6004 45.1848 43.8454 45.0832 44.0261 44.9026C44.2068 44.722 44.3084 44.4771 44.3087 44.2216V3.77783C44.3084 3.52235 44.2068 3.27743 44.0261 3.09682C43.8454 2.9162 43.6004 2.81465 43.345 2.81445ZM19.3116 44.06H4.81445V33.0623H19.3116V44.06ZM19.3116 31.9373H4.81445V16.8121H19.3116V31.9373ZM19.3116 15.6871H4.81445V3.93945H19.3116V15.6871ZM43.1837 44.06H20.4366V11.0622H43.1837V44.06ZM43.1837 9.9372H20.4366V3.93945H43.1837V9.9372Z" fill="white"/>
<path d="M18.0627 12.5466C18.0618 12.0703 17.8722 11.6138 17.5353 11.2771C17.1985 10.9403 16.742 10.7508 16.2657 10.75H7.8593C7.50779 10.749 7.16374 10.8514 6.87001 11.0445C6.57627 11.2376 6.34583 11.5129 6.20736 11.836C6.0689 12.1591 6.02853 12.5158 6.09129 12.8616C6.15404 13.2075 6.31715 13.5273 6.5603 13.7811C6.31715 14.035 6.15404 14.3548 6.09129 14.7006C6.02853 15.0465 6.0689 15.4032 6.20736 15.7263C6.34583 16.0494 6.57627 16.3246 6.87001 16.5177C7.16374 16.7108 7.50779 16.8132 7.8593 16.8123H16.2657C16.6172 16.8133 16.9613 16.7109 17.2551 16.5179C17.5489 16.3248 17.7794 16.0496 17.9179 15.7265C18.0564 15.4034 18.0968 15.0466 18.0341 14.7007C17.9713 14.3548 17.8082 14.035 17.5651 13.7811C17.8837 13.4491 18.0619 13.0069 18.0627 12.5466ZM7.8593 11.875H16.2657C16.3552 11.8729 16.4443 11.8887 16.5277 11.9215C16.611 11.9543 16.687 12.0035 16.7511 12.0661C16.8152 12.1287 16.8661 12.2034 16.9009 12.286C16.9356 12.3686 16.9536 12.4572 16.9536 12.5468C16.9536 12.6364 16.9356 12.7251 16.9009 12.8076C16.8661 12.8902 16.8152 12.965 16.7511 13.0276C16.687 13.0902 16.611 13.1393 16.5277 13.1721C16.4443 13.2049 16.3552 13.2207 16.2657 13.2186H7.8593C7.68388 13.2145 7.51703 13.1419 7.39442 13.0163C7.27182 12.8908 7.20318 12.7223 7.20318 12.5468C7.20318 12.3713 7.27182 12.2028 7.39442 12.0773C7.51703 11.9518 7.68388 11.8792 7.8593 11.875ZM16.2657 15.6873H7.8593C7.68388 15.6831 7.51703 15.6105 7.39442 15.485C7.27182 15.3594 7.20318 15.1909 7.20318 15.0154C7.20318 14.84 7.27182 14.6715 7.39442 14.5459C7.51703 14.4204 7.68388 14.3478 7.8593 14.3436H16.2657C16.3552 14.3415 16.4443 14.3573 16.5277 14.3901C16.611 14.423 16.687 14.4721 16.7511 14.5347C16.8152 14.5973 16.8661 14.6721 16.9009 14.7546C16.9356 14.8372 16.9536 14.9259 16.9536 15.0154C16.9536 15.105 16.9356 15.1937 16.9009 15.2763C16.8661 15.3588 16.8152 15.4336 16.7511 15.4962C16.687 15.5588 16.611 15.6079 16.5277 15.6407C16.4443 15.6736 16.3552 15.6894 16.2657 15.6873Z" fill="white"/>
<path d="M17.6764 27.5624C17.9195 27.3085 18.0826 26.9888 18.1454 26.6429C18.2082 26.297 18.1678 25.9403 18.0293 25.6172C17.8909 25.2941 17.6604 25.0189 17.3667 24.8258C17.0729 24.6327 16.7289 24.5303 16.3774 24.5313H7.97101C7.61946 24.5302 7.27536 24.6326 6.98157 24.8256C6.68778 25.0187 6.45728 25.2939 6.31876 25.617C6.18025 25.9402 6.13985 26.2969 6.2026 26.6428C6.26534 26.9887 6.42846 27.3085 6.67163 27.5624C6.3524 27.894 6.17406 28.3364 6.17406 28.7967C6.17406 29.257 6.3524 29.6994 6.67163 30.031C6.42851 30.2849 6.26544 30.6048 6.20272 30.9507C6.14001 31.2966 6.18041 31.6533 6.31891 31.9764C6.45741 32.2995 6.68788 32.5748 6.98163 32.7679C7.27539 32.961 7.61946 33.0635 7.97101 33.0625H16.3774C16.7289 33.0634 17.0729 32.9609 17.3666 32.7677C17.6603 32.5746 17.8907 32.2993 18.0292 31.9762C18.1676 31.6531 18.208 31.2965 18.1453 30.9506C18.0825 30.6047 17.9195 30.2849 17.6764 30.031C17.9956 29.6994 18.174 29.257 18.174 28.7967C18.174 28.3364 17.9956 27.894 17.6764 27.5624ZM7.29901 28.7969C7.29921 28.6187 7.37007 28.4479 7.49605 28.3219C7.62203 28.1959 7.79284 28.1251 7.97101 28.1249H16.3774C16.5528 28.129 16.7197 28.2016 16.8423 28.3272C16.9649 28.4527 17.0335 28.6212 17.0335 28.7967C17.0335 28.9722 16.9649 29.1407 16.8423 29.2662C16.7197 29.3918 16.5528 29.4644 16.3774 29.4685H7.97101C7.79291 29.4683 7.62215 29.3975 7.49618 29.2716C7.37021 29.1457 7.29931 28.975 7.29901 28.7969ZM7.97101 25.6563H16.3774C16.5528 25.6604 16.7197 25.733 16.8423 25.8585C16.9649 25.9841 17.0335 26.1526 17.0335 26.3281C17.0335 26.5035 16.9649 26.6721 16.8423 26.7976C16.7197 26.9231 16.5528 26.9957 16.3774 26.9999H7.97101C7.88145 27.002 7.79237 26.9862 7.70901 26.9534C7.62565 26.9206 7.54969 26.8714 7.4856 26.8088C7.42152 26.7462 7.37059 26.6715 7.33582 26.5889C7.30105 26.5063 7.28313 26.4177 7.28313 26.3281C7.28313 26.2385 7.30105 26.1498 7.33582 26.0672C7.37059 25.9847 7.42152 25.9099 7.4856 25.8473C7.54969 25.7847 7.62565 25.7356 7.70901 25.7028C7.79237 25.67 7.88145 25.6541 7.97101 25.6563ZM16.3774 31.9375H7.97101C7.79278 31.9375 7.62186 31.8667 7.49583 31.7407C7.36981 31.6147 7.29901 31.4437 7.29901 31.2655C7.29901 31.0873 7.36981 30.9164 7.49583 30.7903C7.62186 30.6643 7.79278 30.5935 7.97101 30.5935H16.3774C16.5556 30.5935 16.7265 30.6643 16.8526 30.7903C16.9786 30.9164 17.0494 31.0873 17.0494 31.2655C17.0494 31.4437 16.9786 31.6147 16.8526 31.7407C16.7265 31.8667 16.5556 31.9375 16.3774 31.9375Z" fill="white"/>
<path d="M42.3501 21.8384C42.0501 20.6782 41.2458 17.8634 40.2914 16.8093C39.7272 16.1534 39.0331 15.6217 38.2529 15.2478C38.0758 15.1656 37.8825 15.1242 37.6873 15.1267C37.4921 15.1292 37.2999 15.1754 37.1249 15.262C36.6265 14.8627 36.0749 14.404 35.6871 14.0493C35.8543 13.809 36.0047 13.5574 36.1371 13.2963C36.9085 11.737 36.7728 10.4017 35.7824 9.81103C35.5303 9.66044 35.2466 9.5704 34.9538 9.54802C34.661 9.52563 34.367 9.57151 34.0949 9.68203C33.845 9.78339 33.6225 9.94211 33.4453 10.1454C33.2681 10.3486 33.1412 10.5907 33.0749 10.852C33.0567 10.9236 33.0528 10.9981 33.0634 11.0712C33.074 11.1444 33.0989 11.2147 33.1366 11.2782C33.1744 11.3417 33.2243 11.3971 33.2835 11.4413C33.3427 11.4855 33.41 11.5177 33.4816 11.5358C33.5532 11.554 33.6277 11.558 33.7008 11.5474C33.7739 11.5368 33.8442 11.5119 33.9077 11.4741C33.9712 11.4364 34.0267 11.3865 34.0709 11.3273C34.1151 11.2681 34.1472 11.2008 34.1654 11.1292C34.1889 11.0374 34.2339 10.9526 34.2965 10.8815C34.3591 10.8105 34.4377 10.7553 34.5258 10.7204C34.6359 10.6764 34.7548 10.6585 34.873 10.6682C34.9913 10.6779 35.1056 10.7149 35.2071 10.7763C35.7321 11.0898 35.4936 12.0603 35.1295 12.7964C34.9526 13.1408 34.7429 13.4673 34.5033 13.7714C34.0784 14.3074 33.6107 14.808 33.1049 15.2684C32.94 15.2161 32.7664 15.1969 32.5941 15.212C32.4218 15.2271 32.2542 15.2763 32.101 15.3565C32.0151 15.4027 31.9135 15.4544 31.801 15.5114C31.6176 15.6044 31.3971 15.7173 31.1658 15.8455C31.0403 15.6254 30.8586 15.4425 30.6392 15.3156C30.4199 15.1887 30.1708 15.1224 29.9174 15.1233H29.3317C28.5933 14.6268 28.0105 14.209 27.6393 13.9109C27.8365 13.6748 28.008 13.4184 28.1508 13.1459C28.9424 11.5792 28.8291 10.3334 27.8369 9.72891C27.562 9.57364 27.2527 9.48966 26.937 9.48462C26.6214 9.47957 26.3095 9.55363 26.0298 9.70003C25.7512 9.83562 25.5117 10.0398 25.3337 10.2934C25.1557 10.547 25.0452 10.8417 25.0124 11.1498C24.9979 11.2983 25.0431 11.4465 25.1379 11.5618C25.2327 11.6771 25.3694 11.7499 25.5179 11.7644C25.6664 11.7789 25.8146 11.7338 25.9299 11.639C26.0452 11.5442 26.1181 11.4074 26.1325 11.2589C26.1467 11.1397 26.1913 11.0262 26.2622 10.9292C26.333 10.8323 26.4275 10.7552 26.5368 10.7054C26.6463 10.6445 26.7691 10.6113 26.8944 10.6088C27.0198 10.6063 27.1438 10.6346 27.2556 10.6912C27.8598 11.0602 27.3816 12.1758 27.1473 12.6412C26.9566 12.9839 26.7187 13.2981 26.4404 13.5745C25.8869 14.1388 25.288 14.6567 24.6498 15.1229H24.1461C23.8482 15.1229 23.5576 15.2151 23.3141 15.3867C23.0706 15.5584 22.8861 15.8012 22.786 16.0818C21.8478 18.8199 21.4481 21.7137 21.6089 24.6037C21.6985 25.9162 21.8178 29.1922 21.8714 37.3492V37.4504C21.8716 37.6685 21.9478 37.8798 22.087 38.0477C22.2261 38.2157 22.4195 38.3299 22.6338 38.3707C23.0507 38.4414 23.4732 38.4746 23.896 38.4697C24.4654 38.4674 25.0339 38.4267 25.5978 38.3478C25.8061 38.3154 25.9974 38.2137 26.1409 38.0592C26.2843 37.9047 26.3715 37.7063 26.3883 37.4962L26.8758 31.5535L27.3111 37.5228C27.3246 37.7251 27.4034 37.9177 27.5355 38.0715C27.6677 38.2253 27.8462 38.3321 28.0443 38.3759C29.0345 38.5101 30.039 38.4989 31.0259 38.3425C31.2487 38.3162 31.4547 38.2109 31.6066 38.0458C31.7586 37.8808 31.8464 37.6668 31.8543 37.4425L31.8614 37.2299C31.894 36.208 31.969 33.8549 32.0605 31.4092C32.863 31.474 33.7855 31.5074 34.7939 31.5074C36.385 31.5074 38.1768 31.4275 39.9888 31.2685C40.0625 31.2621 40.1343 31.2411 40.2 31.2069C40.2656 31.1726 40.3239 31.1257 40.3714 31.0689C40.4189 31.0121 40.4547 30.9464 40.4767 30.8757C40.4988 30.805 40.5066 30.7307 40.4999 30.6569L39.8751 23.8244C39.8671 23.7418 39.8896 23.6591 39.9384 23.592C39.9872 23.5248 40.0589 23.4778 40.1399 23.4599C40.7355 23.353 41.3134 23.1644 41.8574 22.8993C42.0492 22.8063 42.2029 22.6499 42.2927 22.4566C42.3825 22.2633 42.4028 22.0449 42.3501 21.8384ZM34.9945 14.9384C35.3448 15.2542 35.767 15.607 36.1161 15.8913C35.7957 16.0463 35.4451 16.1287 35.0892 16.1328C34.7333 16.1368 34.3809 16.0623 34.057 15.9145C34.3398 15.646 34.6683 15.3127 34.9945 14.9384ZM26.8701 14.7348C27.0123 14.851 27.1788 14.98 27.3715 15.1233H26.4423C26.5926 14.9917 26.7374 14.8619 26.8701 14.7348ZM30.7383 37.1943V37.243C29.9725 37.3529 29.1964 37.3726 28.426 37.3019L27.5009 24.6397C27.5037 24.6148 27.5047 24.5897 27.5039 24.5647L27.3843 22.7369C27.3789 22.6535 27.3548 22.5723 27.3138 22.4995L26.4726 21.0085C26.3975 20.8775 26.2739 20.7812 26.1285 20.7402C25.9831 20.6993 25.8274 20.717 25.6949 20.7895C25.6295 20.8245 25.5717 20.8722 25.525 20.9298C25.4783 20.9874 25.4435 21.0538 25.4228 21.125C25.402 21.1962 25.3957 21.2709 25.4042 21.3446C25.4127 21.4183 25.4358 21.4895 25.4722 21.5542L26.2499 22.9338L26.3403 24.3179L25.2809 37.2554C24.5238 37.3608 23.7567 37.3724 22.9968 37.2899C22.9413 29.1419 22.8213 25.8524 22.7301 24.5264C22.579 21.7891 22.958 19.0484 23.8465 16.4549C23.8685 16.3933 23.9093 16.3401 23.9631 16.303C24.0169 16.2658 24.0811 16.2466 24.1465 16.2479H29.9174C29.9837 16.2478 30.0483 16.2686 30.1021 16.3072C30.1559 16.3458 30.1963 16.4004 30.2174 16.4632L30.3299 16.8344C31.0952 19.4393 31.4104 22.1556 31.2621 24.8665C31.1763 25.9522 31.0803 27.829 30.9621 30.7728C30.8586 33.4278 30.7735 36.0888 30.7383 37.1943ZM39.9228 22.3559C39.5682 22.4267 39.2525 22.6266 39.037 22.917C38.8214 23.2073 38.7214 23.5673 38.7561 23.9272L39.3291 30.1949C36.9272 30.4064 34.5127 30.4365 32.1063 30.2849C32.215 27.6599 32.3035 25.9597 32.383 24.955C32.538 22.2525 32.2477 19.5429 31.5239 16.9345C31.7973 16.774 32.0725 16.6345 32.3073 16.5145C32.4295 16.4527 32.5394 16.3968 32.6309 16.3477C32.6658 16.3314 32.7047 16.3254 32.7429 16.3304C32.7811 16.3355 32.817 16.3513 32.8465 16.3762C32.8622 16.3883 32.8769 16.4017 32.8904 16.4163C33.958 17.5964 36.1064 17.5413 37.5779 16.2948C37.6046 16.2715 37.6376 16.2565 37.6727 16.2517C37.7078 16.2469 37.7435 16.2525 37.7755 16.2678C38.42 16.5775 38.9923 17.0191 39.4555 17.5638C40.0788 18.253 40.765 20.2548 41.218 21.9588C40.8043 22.144 40.3692 22.2774 39.9228 22.3559Z" fill="white"/>
<path d="M11.6997 43.7477C11.5702 42.8506 11.5355 41.9423 11.5962 41.0379C11.6007 40.8591 11.5922 40.6801 11.5707 40.5024C11.4428 39.3317 10.7457 38.4804 9.8352 38.3833C9.51471 38.342 9.18906 38.3914 8.89518 38.5257C8.60129 38.6601 8.35092 38.8741 8.17245 39.1434C7.85219 39.6055 7.67401 40.1512 7.65983 40.7132C7.6497 40.8632 7.64445 41.0188 7.63883 41.1793C7.63572 41.56 7.60237 41.9398 7.53908 42.3152C7.36658 43.0356 7.22258 43.5999 7.1112 43.9922C7.072 44.1315 7.0656 44.2781 7.09251 44.4203C7.11942 44.5626 7.17891 44.6967 7.26631 44.8121C7.3537 44.9275 7.46664 45.0211 7.59627 45.0855C7.72589 45.15 7.86869 45.1835 8.01345 45.1836H10.8233C10.9563 45.1834 11.0877 45.1549 11.2089 45.1001C11.3301 45.0453 11.4382 44.9654 11.5262 44.8657C11.6142 44.766 11.68 44.6487 11.7193 44.5217C11.7586 44.3946 11.7704 44.2607 11.7541 44.1287C11.7372 43.9914 11.717 43.8696 11.6997 43.7477ZM10.1562 44.0586C10.1561 43.6065 10.2007 43.1556 10.2893 42.7123C10.3212 42.5665 10.2938 42.414 10.2132 42.2884C10.1326 42.1628 10.0054 42.0744 9.85958 42.0426C9.71377 42.0107 9.5613 42.0381 9.4357 42.1187C9.31009 42.1993 9.22165 42.3265 9.18983 42.4723C9.08414 42.9945 9.03088 43.5258 9.03083 44.0586H8.25833C8.36258 43.6742 8.48858 43.1739 8.6367 42.5537C8.71489 42.1124 8.75678 41.6654 8.76195 41.2172C8.76683 41.0698 8.7717 40.9273 8.7807 40.7919C8.78115 40.4418 8.88485 40.0995 9.07883 39.8079C9.1417 39.6975 9.23693 39.6091 9.35167 39.5545C9.4664 39.4999 9.59512 39.4818 9.72045 39.5027C10.0167 39.5342 10.3715 39.8987 10.4517 40.6348C10.4671 40.7592 10.4733 40.8845 10.4701 41.0098C10.4067 41.9807 10.4456 42.9555 10.586 43.9183C10.5935 43.9644 10.6006 44.0109 10.6077 44.0582L10.1562 44.0586Z" fill="white"/>
<path d="M17.0309 43.9927C16.9184 43.6001 16.7755 43.0357 16.6082 42.3389C16.5417 41.9559 16.5066 41.5681 16.5032 41.1794C16.4976 41.0189 16.4924 40.8641 16.4819 40.7103C16.4675 40.1495 16.2896 39.605 15.97 39.1439C15.7912 38.8735 15.5399 38.6588 15.2449 38.5245C14.9499 38.3901 14.623 38.3415 14.3016 38.3842C13.3945 38.4806 12.6992 39.3318 12.5725 40.4921C12.5502 40.6737 12.5414 40.8567 12.5462 41.0396C12.6067 41.9435 12.5719 42.8512 12.4424 43.7478C12.4236 43.8697 12.4049 43.9916 12.388 44.1288C12.3716 44.2608 12.3835 44.3947 12.4228 44.5218C12.4621 44.6488 12.5279 44.7661 12.6158 44.8658C12.7038 44.9655 12.812 45.0454 12.9332 45.1002C13.0543 45.155 13.1858 45.1835 13.3187 45.1837H16.1286C16.2733 45.1836 16.4161 45.1501 16.5457 45.0856C16.6753 45.0212 16.7882 44.9277 16.8756 44.8123C16.963 44.6969 17.0225 44.5629 17.0494 44.4207C17.0763 44.2785 17.07 44.132 17.0309 43.9927ZM15.1112 44.0587C15.1112 43.526 15.0579 42.9946 14.9522 42.4724C14.9204 42.3266 14.832 42.1994 14.7064 42.1188C14.5808 42.0383 14.4283 42.0109 14.2825 42.0427C14.1367 42.0745 14.0095 42.163 13.9289 42.2886C13.8483 42.4142 13.8209 42.5666 13.8527 42.7124C13.9414 43.1557 13.986 43.6066 13.9859 44.0587H13.5329C13.54 44.0114 13.5471 43.9649 13.5546 43.9188C13.695 42.9567 13.7339 41.9825 13.6709 41.0122C13.6673 40.8828 13.6737 40.7533 13.69 40.6248C13.7691 39.8988 14.1239 39.5343 14.4145 39.5036C14.5407 39.4812 14.6708 39.4985 14.7868 39.5531C14.9027 39.6077 14.9989 39.6969 15.0621 39.8084C15.2555 40.099 15.3589 40.4401 15.3595 40.7891C15.3689 40.9274 15.3737 41.0699 15.3786 41.2173C15.3842 41.6735 15.4277 42.1285 15.5087 42.5774C15.6531 43.1774 15.778 43.6751 15.8837 44.0587H15.1112Z" fill="white"/>
</svg>
