<svg width="48" height="48" viewBox="0 0 48 48" fill="none" xmlns="http://www.w3.org/2000/svg">
<path d="M19.8691 45.1902C19.72 45.1902 19.5769 45.1309 19.4714 45.0255C19.3659 44.92 19.3066 44.7769 19.3066 44.6277V3.38184C19.3066 3.23265 19.3659 3.08958 19.4714 2.98409C19.5769 2.8786 19.72 2.81934 19.8691 2.81934C20.0183 2.81934 20.1614 2.8786 20.2669 2.98409C20.3724 3.08958 20.4316 3.23265 20.4316 3.38184V44.6277C20.4316 44.7769 20.3724 44.92 20.2669 45.0255C20.1614 45.1309 20.0183 45.1902 19.8691 45.1902Z" fill="#525252"/>
<path d="M44.2062 47.6281H3.78125C3.13503 47.6273 2.5155 47.3702 2.05855 46.9133C1.60161 46.4563 1.34454 45.8368 1.34375 45.1906V2.80957C1.34454 2.16335 1.60161 1.54382 2.05855 1.08687C2.5155 0.629926 3.13503 0.372864 3.78125 0.37207H44.2062C44.8525 0.372864 45.472 0.629926 45.9289 1.08687C46.3859 1.54382 46.643 2.16335 46.6437 2.80957V45.1906C46.643 45.8368 46.3859 46.4563 45.9289 46.9133C45.472 47.3702 44.8525 47.6273 44.2062 47.6281ZM3.78125 1.49707C3.43331 1.49757 3.09975 1.63601 2.85372 1.88204C2.60769 2.12807 2.46925 2.46163 2.46875 2.80957V45.1906C2.46875 45.5387 2.60703 45.8725 2.85317 46.1186C3.09931 46.3648 3.43315 46.5031 3.78125 46.5031H44.2062C44.5543 46.5031 44.8882 46.3648 45.1343 46.1186C45.3805 45.8725 45.5187 45.5387 45.5187 45.1906V2.80957C45.5183 2.46163 45.3798 2.12807 45.1338 1.88204C44.8877 1.63601 44.5542 1.49757 44.2062 1.49707H3.78125Z" fill="#525252"/>
<path d="M43.3391 2.81445H4.64734C4.39187 2.81465 4.14691 2.9162 3.96622 3.09682C3.78554 3.27743 3.68389 3.52235 3.68359 3.77783V44.2216C3.68389 44.4771 3.78554 44.722 3.96622 44.9026C4.14691 45.0832 4.39187 45.1848 4.64734 45.185H19.8176C19.8345 45.185 19.851 45.1902 19.8682 45.1902C19.8855 45.1902 19.902 45.1865 19.9188 45.185H43.3391C43.5946 45.1848 43.8395 45.0832 44.0202 44.9026C44.2009 44.722 44.3025 44.4771 44.3028 44.2216V3.77783C44.3025 3.52235 44.2009 3.27743 44.0202 3.09682C43.8395 2.9162 43.5946 2.81465 43.3391 2.81445ZM19.3057 44.06H4.80859V33.0623H19.3057V44.06ZM19.3057 31.9373H4.80859V16.8121H19.3057V31.9373ZM19.3057 15.6871H4.80859V3.93945H19.3057V15.6871ZM43.1778 44.06H20.4307V11.0622H43.1778V44.06ZM43.1778 9.9372H20.4307V3.93945H43.1778V9.9372Z" fill="#525252"/>
<path d="M18.0568 12.5466C18.0559 12.0703 17.8663 11.6138 17.5295 11.2771C17.1927 10.9403 16.7361 10.7508 16.2598 10.75H7.85344C7.50193 10.749 7.15788 10.8514 6.86415 11.0445C6.57041 11.2376 6.33997 11.5129 6.2015 11.836C6.06304 12.1591 6.02267 12.5158 6.08543 12.8616C6.14818 13.2075 6.31129 13.5273 6.55444 13.7811C6.31129 14.035 6.14818 14.3548 6.08543 14.7006C6.02267 15.0465 6.06304 15.4032 6.2015 15.7263C6.33997 16.0494 6.57041 16.3246 6.86415 16.5177C7.15788 16.7108 7.50193 16.8132 7.85344 16.8123H16.2598C16.6114 16.8133 16.9555 16.7109 17.2493 16.5179C17.543 16.3248 17.7736 16.0496 17.9121 15.7265C18.0506 15.4034 18.091 15.0466 18.0282 14.7007C17.9655 14.3548 17.8024 14.035 17.5592 13.7811C17.8778 13.4491 18.0561 13.0069 18.0568 12.5466ZM7.85344 11.875H16.2598C16.3494 11.8729 16.4385 11.8887 16.5218 11.9215C16.6052 11.9543 16.6811 12.0035 16.7452 12.0661C16.8093 12.1287 16.8602 12.2034 16.895 12.286C16.9298 12.3686 16.9477 12.4572 16.9477 12.5468C16.9477 12.6364 16.9298 12.7251 16.895 12.8076C16.8602 12.8902 16.8093 12.965 16.7452 13.0276C16.6811 13.0902 16.6052 13.1393 16.5218 13.1721C16.4385 13.2049 16.3494 13.2207 16.2598 13.2186H7.85344C7.67802 13.2145 7.51117 13.1419 7.38856 13.0163C7.26596 12.8908 7.19732 12.7223 7.19732 12.5468C7.19732 12.3713 7.26596 12.2028 7.38856 12.0773C7.51117 11.9518 7.67802 11.8792 7.85344 11.875ZM16.2598 15.6873H7.85344C7.67802 15.6831 7.51117 15.6105 7.38856 15.485C7.26596 15.3594 7.19732 15.1909 7.19732 15.0154C7.19732 14.84 7.26596 14.6715 7.38856 14.5459C7.51117 14.4204 7.67802 14.3478 7.85344 14.3436H16.2598C16.3494 14.3415 16.4385 14.3573 16.5218 14.3901C16.6052 14.423 16.6811 14.4721 16.7452 14.5347C16.8093 14.5973 16.8602 14.6721 16.895 14.7546C16.9298 14.8372 16.9477 14.9259 16.9477 15.0154C16.9477 15.105 16.9298 15.1937 16.895 15.2763C16.8602 15.3588 16.8093 15.4336 16.7452 15.4962C16.6811 15.5588 16.6052 15.6079 16.5218 15.6407C16.4385 15.6736 16.3494 15.6894 16.2598 15.6873Z" fill="#525252"/>
<path d="M17.6705 27.5624C17.9137 27.3085 18.0768 26.9888 18.1395 26.6429C18.2023 26.297 18.1619 25.9403 18.0235 25.6172C17.885 25.2941 17.6546 25.0189 17.3608 24.8258C17.0671 24.6327 16.723 24.5303 16.3715 24.5313H7.96515C7.6136 24.5302 7.2695 24.6326 6.97571 24.8256C6.68192 25.0187 6.45142 25.2939 6.3129 25.617C6.17439 25.9402 6.13399 26.2969 6.19674 26.6428C6.25948 26.9887 6.4226 27.3085 6.66577 27.5624C6.34654 27.894 6.1682 28.3364 6.1682 28.7967C6.1682 29.257 6.34654 29.6994 6.66577 30.031C6.42265 30.2849 6.25958 30.6048 6.19687 30.9507C6.13415 31.2966 6.17455 31.6533 6.31305 31.9764C6.45155 32.2995 6.68202 32.5748 6.97578 32.7679C7.26953 32.961 7.6136 33.0635 7.96515 33.0625H16.3715C16.723 33.0634 17.0671 32.9609 17.3608 32.7677C17.6545 32.5746 17.8849 32.2993 18.0233 31.9762C18.1618 31.6531 18.2021 31.2965 18.1394 30.9506C18.0767 30.6047 17.9136 30.2849 17.6705 30.031C17.9898 29.6994 18.1681 29.257 18.1681 28.7967C18.1681 28.3364 17.9898 27.894 17.6705 27.5624ZM7.29315 28.7969C7.29335 28.6187 7.36421 28.4479 7.49019 28.3219C7.61617 28.1959 7.78698 28.1251 7.96515 28.1249H16.3715C16.547 28.129 16.7138 28.2016 16.8364 28.3272C16.959 28.4527 17.0276 28.6212 17.0276 28.7967C17.0276 28.9722 16.959 29.1407 16.8364 29.2662C16.7138 29.3918 16.547 29.4644 16.3715 29.4685H7.96515C7.78705 29.4683 7.6163 29.3975 7.49032 29.2716C7.36435 29.1457 7.29345 28.975 7.29315 28.7969ZM7.96515 25.6563H16.3715C16.547 25.6604 16.7138 25.733 16.8364 25.8585C16.959 25.9841 17.0276 26.1526 17.0276 26.3281C17.0276 26.5035 16.959 26.6721 16.8364 26.7976C16.7138 26.9231 16.547 26.9957 16.3715 26.9999H7.96515C7.87559 27.002 7.78651 26.9862 7.70315 26.9534C7.61979 26.9206 7.54383 26.8714 7.47975 26.8088C7.41566 26.7462 7.36473 26.6715 7.32996 26.5889C7.29519 26.5063 7.27727 26.4177 7.27727 26.3281C7.27727 26.2385 7.29519 26.1498 7.32996 26.0672C7.36473 25.9847 7.41566 25.9099 7.47975 25.8473C7.54383 25.7847 7.61979 25.7356 7.70315 25.7028C7.78651 25.67 7.87559 25.6541 7.96515 25.6563ZM16.3715 31.9375H7.96515C7.78692 31.9375 7.616 31.8667 7.48997 31.7407C7.36395 31.6147 7.29315 31.4437 7.29315 31.2655C7.29315 31.0873 7.36395 30.9164 7.48997 30.7903C7.616 30.6643 7.78692 30.5935 7.96515 30.5935H16.3715C16.5497 30.5935 16.7207 30.6643 16.8467 30.7903C16.9727 30.9164 17.0435 31.0873 17.0435 31.2655C17.0435 31.4437 16.9727 31.6147 16.8467 31.7407C16.7207 31.8667 16.5497 31.9375 16.3715 31.9375Z" fill="#525252"/>
<path d="M42.3443 21.8384C42.0443 20.6782 41.2399 17.8634 40.2855 16.8093C39.7214 16.1534 39.0272 15.6217 38.247 15.2478C38.0699 15.1656 37.8766 15.1242 37.6814 15.1267C37.4862 15.1292 37.294 15.1754 37.119 15.262C36.6207 14.8627 36.069 14.404 35.6813 14.0493C35.8485 13.809 35.9988 13.5574 36.1313 13.2963C36.9027 11.737 36.7669 10.4017 35.7765 9.81103C35.5244 9.66044 35.2408 9.5704 34.948 9.54802C34.6551 9.52563 34.3611 9.57151 34.089 9.68203C33.8392 9.78339 33.6167 9.94211 33.4395 10.1454C33.2623 10.3486 33.1354 10.5907 33.069 10.852C33.0508 10.9236 33.0469 10.9981 33.0575 11.0712C33.0681 11.1444 33.093 11.2147 33.1308 11.2782C33.1685 11.3417 33.2184 11.3971 33.2776 11.4413C33.3368 11.4855 33.4041 11.5177 33.4757 11.5358C33.5473 11.554 33.6218 11.558 33.6949 11.5474C33.768 11.5368 33.8384 11.5119 33.9019 11.4741C33.9654 11.4364 34.0208 11.3865 34.065 11.3273C34.1092 11.2681 34.1413 11.2008 34.1595 11.1292C34.1831 11.0374 34.228 10.9526 34.2906 10.8815C34.3533 10.8105 34.4318 10.7553 34.5199 10.7204C34.6301 10.6764 34.7489 10.6585 34.8672 10.6682C34.9854 10.6779 35.0998 10.7149 35.2013 10.7763C35.7263 11.0898 35.4878 12.0603 35.1237 12.7964C34.9468 13.1408 34.7371 13.4673 34.4974 13.7714C34.0725 14.3074 33.6049 14.808 33.099 15.2684C32.9342 15.2161 32.7606 15.1969 32.5883 15.212C32.416 15.2271 32.2484 15.2763 32.0952 15.3565C32.0093 15.4027 31.9077 15.4544 31.7952 15.5114C31.6118 15.6044 31.3913 15.7173 31.1599 15.8455C31.0344 15.6254 30.8527 15.4425 30.6334 15.3156C30.414 15.1887 30.1649 15.1224 29.9115 15.1233H29.3258C28.5874 14.6268 28.0047 14.209 27.6334 13.9109C27.8306 13.6748 28.0021 13.4184 28.1449 13.1459C28.9365 11.5792 28.8233 10.3334 27.831 9.72891C27.5562 9.57364 27.2468 9.48966 26.9311 9.48462C26.6155 9.47957 26.3036 9.55363 26.0239 9.70003C25.7453 9.83562 25.5058 10.0398 25.3279 10.2934C25.1499 10.547 25.0393 10.8417 25.0065 11.1498C24.9921 11.2983 25.0372 11.4465 25.132 11.5618C25.2268 11.6771 25.3635 11.7499 25.512 11.7644C25.6606 11.7789 25.8088 11.7338 25.924 11.639C26.0393 11.5442 26.1122 11.4074 26.1267 11.2589C26.1408 11.1397 26.1855 11.0262 26.2563 10.9292C26.3271 10.8323 26.4217 10.7552 26.5309 10.7054C26.6404 10.6445 26.7633 10.6113 26.8886 10.6088C27.0139 10.6063 27.1379 10.6346 27.2498 10.6912C27.8539 11.0602 27.3758 12.1758 27.1414 12.6412C26.9507 12.9839 26.7128 13.2981 26.4345 13.5745C25.8811 14.1388 25.2822 14.6567 24.6439 15.1229H24.1403C23.8424 15.1229 23.5517 15.2151 23.3082 15.3867C23.0647 15.5584 22.8803 15.8012 22.7802 16.0818C21.8419 18.8199 21.4422 21.7137 21.603 24.6037C21.6927 25.9162 21.8119 29.1922 21.8655 37.3492V37.4504C21.8657 37.6685 21.9419 37.8798 22.0811 38.0477C22.2203 38.2157 22.4136 38.3299 22.6279 38.3707C23.0448 38.4414 23.4673 38.4746 23.8902 38.4697C24.4595 38.4674 25.0281 38.4267 25.5919 38.3478C25.8002 38.3154 25.9916 38.2137 26.135 38.0592C26.2784 37.9047 26.3656 37.7063 26.3824 37.4962L26.8699 31.5535L27.3053 37.5228C27.3188 37.7251 27.3975 37.9177 27.5297 38.0715C27.6619 38.2253 27.8404 38.3321 28.0384 38.3759C29.0286 38.5101 30.0331 38.4989 31.02 38.3425C31.2428 38.3162 31.4488 38.2109 31.6008 38.0458C31.7527 37.8808 31.8406 37.6668 31.8484 37.4425L31.8555 37.2299C31.8882 36.208 31.9632 33.8549 32.0547 31.4092C32.8572 31.474 33.7797 31.5074 34.788 31.5074C36.3792 31.5074 38.1709 31.4275 39.9829 31.2685C40.0567 31.2621 40.1285 31.2411 40.1941 31.2069C40.2598 31.1726 40.318 31.1257 40.3655 31.0689C40.413 31.0121 40.4488 30.9464 40.4708 30.8757C40.4929 30.805 40.5008 30.7307 40.494 30.6569L39.8693 23.8244C39.8613 23.7418 39.8838 23.6591 39.9326 23.592C39.9813 23.5248 40.053 23.4778 40.134 23.4599C40.7296 23.353 41.3076 23.1644 41.8515 22.8993C42.0433 22.8063 42.1971 22.6499 42.2869 22.4566C42.3766 22.2633 42.3969 22.0449 42.3443 21.8384ZM34.9887 14.9384C35.3389 15.2542 35.7612 15.607 36.1103 15.8913C35.7899 16.0463 35.4392 16.1287 35.0833 16.1328C34.7274 16.1368 34.375 16.0623 34.0512 15.9145C34.3339 15.646 34.6624 15.3127 34.9887 14.9384ZM26.8643 14.7348C27.0064 14.851 27.1729 14.98 27.3657 15.1233H26.4364C26.5868 14.9917 26.7315 14.8619 26.8643 14.7348ZM30.7324 37.1943V37.243C29.9666 37.3529 29.1906 37.3726 28.4202 37.3019L27.495 24.6397C27.4978 24.6148 27.4988 24.5897 27.498 24.5647L27.3784 22.7369C27.3731 22.6535 27.349 22.5723 27.3079 22.4995L26.4668 21.0085C26.3916 20.8775 26.268 20.7812 26.1226 20.7402C25.9772 20.6993 25.8215 20.717 25.689 20.7895C25.6236 20.8245 25.5659 20.8722 25.5191 20.9298C25.4724 20.9874 25.4377 21.0538 25.4169 21.125C25.3962 21.1962 25.3899 21.2709 25.3983 21.3446C25.4068 21.4183 25.4299 21.4895 25.4663 21.5542L26.244 22.9338L26.3344 24.3179L25.275 37.2554C24.518 37.3608 23.7508 37.3724 22.9909 37.2899C22.9354 29.1419 22.8154 25.8524 22.7243 24.5264C22.5731 21.7891 22.9522 19.0484 23.8407 16.4549C23.8626 16.3933 23.9034 16.3401 23.9572 16.303C24.0111 16.2658 24.0753 16.2466 24.1407 16.2479H29.9115C29.9778 16.2478 30.0424 16.2686 30.0962 16.3072C30.1501 16.3458 30.1904 16.4004 30.2115 16.4632L30.324 16.8344C31.0893 19.4393 31.4046 22.1556 31.2563 24.8665C31.1704 25.9522 31.0744 27.829 30.9563 30.7728C30.8528 33.4278 30.7677 36.0888 30.7324 37.1943ZM39.9169 22.3559C39.5623 22.4267 39.2467 22.6266 39.0311 22.917C38.8156 23.2073 38.7155 23.5673 38.7503 23.9272L39.3233 30.1949C36.9213 30.4064 34.5069 30.4365 32.1004 30.2849C32.2092 27.6599 32.2977 25.9597 32.3772 24.955C32.5321 22.2525 32.2419 19.5429 31.518 16.9345C31.7914 16.774 32.0667 16.6345 32.3014 16.5145C32.4237 16.4527 32.5335 16.3968 32.625 16.3477C32.66 16.3314 32.6988 16.3254 32.737 16.3304C32.7752 16.3355 32.8112 16.3513 32.8407 16.3762C32.8564 16.3883 32.871 16.4017 32.8845 16.4163C33.9522 17.5964 36.1005 17.5413 37.572 16.2948C37.5987 16.2715 37.6317 16.2565 37.6668 16.2517C37.7019 16.2469 37.7377 16.2525 37.7697 16.2678C38.4141 16.5775 38.9865 17.0191 39.4497 17.5638C40.0729 18.253 40.7592 20.2548 41.2122 21.9588C40.7984 22.144 40.3634 22.2774 39.9169 22.3559Z" fill="#525252"/>
<path d="M11.6938 43.7477C11.5643 42.8506 11.5296 41.9423 11.5903 41.0379C11.5949 40.8591 11.5864 40.6801 11.5648 40.5024C11.437 39.3317 10.7398 38.4804 9.82934 38.3833C9.50885 38.342 9.1832 38.3914 8.88932 38.5257C8.59543 38.6601 8.34506 38.8741 8.16659 39.1434C7.84633 39.6055 7.66815 40.1512 7.65397 40.7132C7.64384 40.8632 7.63859 41.0188 7.63297 41.1793C7.62986 41.56 7.59651 41.9398 7.53322 42.3152C7.36072 43.0356 7.21672 43.5999 7.10534 43.9922C7.06614 44.1315 7.05974 44.2781 7.08665 44.4203C7.11356 44.5626 7.17305 44.6967 7.26045 44.8121C7.34784 44.9275 7.46078 45.0211 7.59041 45.0855C7.72003 45.15 7.86283 45.1835 8.00759 45.1836H10.8175C10.9505 45.1834 11.0819 45.1549 11.203 45.1001C11.3242 45.0453 11.4324 44.9654 11.5204 44.8657C11.6083 44.766 11.6741 44.6487 11.7134 44.5217C11.7527 44.3946 11.7646 44.2607 11.7482 44.1287C11.7313 43.9914 11.7111 43.8696 11.6938 43.7477ZM10.1503 44.0586C10.1502 43.6065 10.1948 43.1556 10.2835 42.7123C10.3153 42.5665 10.2879 42.414 10.2073 42.2884C10.1267 42.1628 9.99952 42.0744 9.85372 42.0426C9.70791 42.0107 9.55544 42.0381 9.42984 42.1187C9.30423 42.1993 9.21579 42.3265 9.18397 42.4723C9.07828 42.9945 9.02502 43.5258 9.02497 44.0586H8.25247C8.35672 43.6742 8.48272 43.1739 8.63084 42.5537C8.70903 42.1124 8.75092 41.6654 8.75609 41.2172C8.76097 41.0698 8.76584 40.9273 8.77484 40.7919C8.77529 40.4418 8.87899 40.0995 9.07297 39.8079C9.13584 39.6975 9.23107 39.6091 9.34581 39.5545C9.46054 39.4999 9.58926 39.4818 9.71459 39.5027C10.0108 39.5342 10.3656 39.8987 10.4458 40.6348C10.4613 40.7592 10.4674 40.8845 10.4642 41.0098C10.4009 41.9807 10.4397 42.9555 10.5801 43.9183C10.5876 43.9644 10.5947 44.0109 10.6018 44.0582L10.1503 44.0586Z" fill="#525252"/>
<path d="M17.025 43.9927C16.9125 43.6001 16.7696 43.0357 16.6024 42.3389C16.5358 41.9559 16.5007 41.5681 16.4974 41.1794C16.4918 41.0189 16.4865 40.8641 16.476 40.7103C16.4617 40.1495 16.2838 39.605 15.9641 39.1439C15.7854 38.8735 15.5341 38.6588 15.2391 38.5245C14.944 38.3901 14.6171 38.3415 14.2958 38.3842C13.3886 38.4806 12.6934 39.3318 12.5666 40.4921C12.5443 40.6737 12.5356 40.8567 12.5404 41.0396C12.6008 41.9435 12.566 42.8512 12.4365 43.7478C12.4178 43.8697 12.399 43.9916 12.3821 44.1288C12.3658 44.2608 12.3776 44.3947 12.4169 44.5218C12.4562 44.6488 12.522 44.7661 12.61 44.8658C12.698 44.9655 12.8061 45.0454 12.9273 45.1002C13.0485 45.155 13.1799 45.1835 13.3129 45.1837H16.1228C16.2675 45.1836 16.4102 45.1501 16.5398 45.0856C16.6694 45.0212 16.7823 44.9277 16.8697 44.8123C16.9571 44.6969 17.0166 44.5629 17.0435 44.4207C17.0705 44.2785 17.0641 44.132 17.025 43.9927ZM15.1054 44.0587C15.1053 43.526 15.0521 42.9946 14.9464 42.4724C14.9146 42.3266 14.8261 42.1994 14.7005 42.1188C14.5749 42.0383 14.4224 42.0109 14.2766 42.0427C14.1308 42.0745 14.0036 42.163 13.923 42.2886C13.8424 42.4142 13.8151 42.5666 13.8469 42.7124C13.9355 43.1557 13.9801 43.6066 13.98 44.0587H13.527C13.5341 44.0114 13.5413 43.9649 13.5488 43.9188C13.6891 42.9567 13.7281 41.9825 13.665 41.0122C13.6615 40.8828 13.6679 40.7533 13.6841 40.6248C13.7633 39.8988 14.118 39.5343 14.4086 39.5036C14.5349 39.4812 14.6649 39.4985 14.7809 39.5531C14.8969 39.6077 14.9931 39.6969 15.0563 39.8084C15.2496 40.099 15.353 40.4401 15.3536 40.7891C15.363 40.9274 15.3679 41.0699 15.3728 41.2173C15.3783 41.6735 15.4218 42.1285 15.5029 42.5774C15.6473 43.1774 15.7721 43.6751 15.8779 44.0587H15.1054Z" fill="#525252"/>
</svg>
