<svg width="22" height="22" viewBox="0 0 22 22" fill="none" xmlns="http://www.w3.org/2000/svg">
<path d="M8.40002 22C8.28695 22.0003 8.17433 21.9858 8.06501 21.9569C7.45816 21.7948 7.08512 21.2287 6.72434 20.6812C6.5292 20.3245 6.26298 20.0117 5.94212 19.7619C5.55948 19.6044 5.14841 19.5275 4.73469 19.5363C4.08635 19.4967 3.41696 19.4543 2.98138 19.0196C2.5458 18.5849 2.50432 17.9142 2.4644 17.2662C2.47274 16.8528 2.39582 16.4422 2.23844 16.0599C1.98881 15.7388 1.67581 15.4724 1.31889 15.2774C0.771432 14.9166 0.205431 14.5435 0.043582 13.9366C-0.113553 13.3545 0.183432 12.7615 0.469104 12.1876C0.688781 11.8249 0.830391 11.4204 0.884883 10.9999C0.830167 10.5798 0.688567 10.1758 0.469104 9.81345C0.183432 9.23987 -0.111982 8.64649 0.043582 8.06443C0.205431 7.45754 0.771746 7.08448 1.31889 6.72367C1.67579 6.52871 1.98878 6.26244 2.23844 5.94141C2.39588 5.55871 2.47269 5.14765 2.46409 4.73391C2.50432 4.08616 2.54549 3.41641 2.98106 2.98049C3.41664 2.54458 4.08635 2.5034 4.73438 2.46349C5.14769 2.47183 5.55828 2.39491 5.94055 2.23752C6.2618 1.98841 6.52856 1.67607 6.72434 1.31979C7.08512 0.772302 7.45816 0.206268 8.06501 0.0440947C8.64515 -0.110221 9.24007 0.183953 9.81424 0.469642C10.1765 0.688575 10.5805 0.829648 11.0003 0.883874C11.4202 0.829166 11.8242 0.687556 12.1864 0.46807C12.7605 0.182382 13.3554 -0.111793 13.9356 0.0425232C14.5424 0.204696 14.9155 0.77073 15.2763 1.31822C15.4718 1.67507 15.7386 1.98796 16.06 2.23752C16.4427 2.39511 16.8537 2.47193 17.2675 2.46318C17.9152 2.50309 18.5852 2.54458 19.0208 2.98018C19.4564 3.41578 19.4963 4.08553 19.5362 4.7336C19.5278 5.14693 19.6048 5.55755 19.7621 5.93984C20.0118 6.26098 20.3248 6.52736 20.6817 6.72242C21.2292 7.08322 21.7952 7.45628 21.957 8.06317C22.1126 8.64524 21.8172 9.2383 21.5315 9.81219C21.3118 10.1749 21.1702 10.5794 21.1157 10.9999C21.1704 11.4199 21.312 11.824 21.5315 12.1863C21.8172 12.7602 22.1126 13.3533 21.957 13.9353C21.7952 14.5422 21.2288 14.9153 20.6817 15.2761C20.3247 15.4715 20.0116 15.7383 19.7621 16.0599C19.6047 16.4426 19.5279 16.8537 19.5365 17.2674C19.4963 17.9152 19.4551 18.5849 19.0195 19.0209C18.5839 19.4568 17.9142 19.4964 17.2662 19.5363C16.8525 19.5278 16.4414 19.6047 16.0588 19.7623C15.7378 20.0119 15.4715 20.3248 15.2763 20.6816C14.9155 21.229 14.5424 21.7951 13.9356 21.9573C13.3554 22.1119 12.7605 21.8174 12.1864 21.5317C11.8242 21.3122 11.4202 21.1706 11.0003 21.1159C10.5804 21.1706 10.1764 21.3122 9.81424 21.5317C9.38366 21.7913 8.90045 21.9513 8.40002 22ZM8.40002 0.628358C8.34141 0.627848 8.28298 0.635033 8.22623 0.649729C7.84911 0.750302 7.54427 1.21545 7.2476 1.66394C7.00519 2.1063 6.66617 2.48831 6.25576 2.78155C5.7908 2.99472 5.2838 3.10043 4.7724 3.09081C4.21677 3.12507 3.69226 3.15744 3.4245 3.4249C3.15674 3.69236 3.12469 4.21722 3.09043 4.77288C3.10016 5.28429 2.99457 5.79132 2.7815 6.25633C2.48892 6.66641 2.10783 7.00541 1.66647 7.24822C1.21707 7.5446 0.75289 7.85071 0.652009 8.2266C0.557728 8.57892 0.789031 9.04375 1.03322 9.5331C1.30177 9.9796 1.46593 10.481 1.51342 10.9999C1.46545 11.5189 1.30075 12.0203 1.03165 12.4667C0.786517 12.9576 0.556785 13.4199 0.650438 13.7732C0.751318 14.1503 1.21612 14.4552 1.6649 14.7516C2.10718 14.9942 2.48914 15.3333 2.78245 15.7438C2.99561 16.2087 3.1013 16.7158 3.09169 17.2272C3.12594 17.7829 3.15831 18.3074 3.42576 18.5752C3.6932 18.843 4.21803 18.875 4.77366 18.9093C5.28505 18.8994 5.79209 19.005 6.25702 19.2182C6.66736 19.5115 7.00636 19.8935 7.24885 20.3358C7.54521 20.785 7.85131 21.2495 8.22718 21.35C8.57947 21.4443 9.04428 21.2136 9.53391 20.9691C9.98012 20.7 10.4814 20.5353 11.0003 20.4873C11.5192 20.5353 12.0205 20.7 12.4667 20.9691C12.9576 21.2136 13.4217 21.4443 13.7734 21.35C14.1505 21.2495 14.4554 20.7843 14.7521 20.3358C14.9945 19.8935 15.3335 19.5115 15.7439 19.2182C16.2088 19.0051 16.7158 18.8993 17.2272 18.909C17.7829 18.8747 18.3074 18.8423 18.5751 18.5749C18.8429 18.3074 18.875 17.7826 18.9092 17.2269C18.8995 16.7155 19.0051 16.2085 19.2181 15.7434C19.5114 15.3331 19.8934 14.9941 20.3357 14.7516C20.7851 14.4552 21.2493 14.1491 21.3502 13.7732C21.4444 13.4209 21.2131 12.956 20.9689 12.4667C20.6998 12.0203 20.5351 11.5189 20.4872 10.9999C20.5351 10.4809 20.6998 9.97946 20.9689 9.5331C21.2131 9.04218 21.4438 8.57892 21.3502 8.2266C21.2493 7.84946 20.7845 7.5446 20.3357 7.24822C19.8934 7.00559 19.5114 6.66646 19.2181 6.25601C19.005 5.79103 18.8993 5.284 18.9089 4.77257C18.8746 4.21691 18.8423 3.69236 18.5748 3.42458C18.3074 3.15681 17.7826 3.12475 17.2269 3.0905C16.7155 3.10037 16.2085 2.99477 15.7436 2.78155C15.3334 2.48868 14.9944 2.10724 14.7517 1.66551C14.4554 1.21639 14.1493 0.751873 13.7734 0.651301C13.4214 0.557014 12.9579 0.787702 12.4667 1.03222C12.0203 1.30081 11.519 1.46498 11.0003 1.51245C10.4814 1.4645 9.98012 1.29979 9.53391 1.03065C9.18802 0.819897 8.8023 0.682935 8.40097 0.628358H8.40002Z" fill="#5D367D"/>
<path d="M13.5057 15.4097C13.2032 15.4099 12.9055 15.3344 12.6396 15.1901C12.3738 15.0459 12.1482 14.8374 11.9835 14.5837C11.8188 14.33 11.7202 14.0391 11.6967 13.7375C11.6731 13.436 11.7253 13.1333 11.8486 12.8571C11.9719 12.5809 12.1623 12.3399 12.4025 12.156C12.6427 11.9722 12.9251 11.8514 13.2239 11.8046C13.5228 11.7578 13.8285 11.7865 14.1134 11.8881C14.3983 11.9897 14.6533 12.1609 14.8551 12.3862C15.0891 12.6468 15.2426 12.9697 15.297 13.3157C15.3514 13.6617 15.3044 14.0161 15.1616 14.3359C15.0188 14.6558 14.7865 14.9274 14.4926 15.118C14.1987 15.3085 13.8559 15.4099 13.5057 15.4097ZM13.5057 12.4123C13.2344 12.4126 12.9715 12.5059 12.7608 12.6767C12.5501 12.8476 12.4044 13.0856 12.3481 13.3509C12.2918 13.6162 12.3283 13.8929 12.4514 14.1346C12.5745 14.3763 12.7768 14.5684 13.0246 14.6788C13.2723 14.7892 13.5505 14.8113 13.8125 14.7413C14.0746 14.6713 14.3046 14.5134 14.4643 14.2942C14.624 14.0749 14.7036 13.8075 14.6897 13.5365C14.6759 13.2656 14.5696 13.0077 14.3884 12.8058C14.2773 12.6814 14.141 12.582 13.9886 12.5142C13.8362 12.4464 13.6712 12.4116 13.5044 12.4123H13.5057Z" fill="#5D367D"/>
<path d="M8.4965 10.2157C8.19404 10.2159 7.89633 10.1405 7.63048 9.99619C7.36463 9.85193 7.13909 9.64345 6.97439 9.38974C6.8097 9.13603 6.71108 8.84515 6.68751 8.54358C6.66394 8.24202 6.71618 7.93935 6.83947 7.66313C6.96275 7.38691 7.15317 7.14593 7.39338 6.96211C7.63359 6.77829 7.91596 6.65748 8.21478 6.61068C8.51361 6.56388 8.81939 6.59258 9.10429 6.69416C9.38919 6.79574 9.64416 6.96698 9.84598 7.19228C10.08 7.4529 10.2335 7.77575 10.2879 8.12177C10.3422 8.46779 10.2952 8.82216 10.1525 9.14201C10.0097 9.46186 9.77732 9.7335 9.48343 9.92405C9.18955 10.1146 8.84675 10.2159 8.4965 10.2157ZM8.4965 7.21837C8.22528 7.2187 7.96239 7.31211 7.75175 7.48298C7.54112 7.65386 7.39551 7.89185 7.33924 8.15719C7.28298 8.42253 7.31948 8.69914 7.44263 8.94081C7.56579 9.18247 7.76815 9.37454 8.0159 9.48493C8.26364 9.59532 8.54176 9.61734 8.80379 9.54731C9.06582 9.47727 9.29587 9.31943 9.45552 9.10016C9.61516 8.88088 9.69472 8.61346 9.68091 8.34257C9.66709 8.07168 9.56073 7.81375 9.3796 7.61185C9.26824 7.48766 9.13188 7.3884 8.97948 7.32059C8.82707 7.25278 8.66206 7.21794 8.49525 7.21837H8.4965Z" fill="#5D367D"/>
<path d="M6.81202 15.3949C6.74947 15.395 6.68831 15.3765 6.63637 15.3416C6.58442 15.3068 6.54405 15.2572 6.52043 15.1993C6.49681 15.1414 6.491 15.0778 6.50375 15.0165C6.51651 14.9553 6.54725 14.8992 6.59203 14.8556L14.9692 6.69413C15.0289 6.63578 15.1094 6.60355 15.1929 6.60452C15.2764 6.60549 15.356 6.63959 15.4144 6.69932C15.4727 6.75904 15.505 6.8395 15.504 6.92299C15.503 7.00647 15.4689 7.08616 15.4092 7.14451L7.03138 15.3056C6.97269 15.3629 6.89398 15.3949 6.81202 15.3949Z" fill="#5D367D"/>
</svg>
