<svg width="48" height="48" viewBox="0 0 48 48" fill="none" xmlns="http://www.w3.org/2000/svg">
<g clip-path="url(#clip0_2170_5528)">
<path d="M12.1042 30.9673C11.0076 29.8709 9.22345 29.871 8.12695 30.9674C7.03055 32.0637 7.03036 33.8479 8.12686 34.9443C9.22355 36.0407 11.0077 36.0407 12.1042 34.9443C13.2007 33.8479 13.2008 32.0638 12.1042 30.9673ZM11.1098 33.95C10.5615 34.4983 9.66942 34.4983 9.12117 33.95C8.57311 33.4018 8.57292 32.5099 9.12126 31.9616C9.66942 31.4134 10.5615 31.4134 11.1098 31.9615C11.658 32.5097 11.658 33.4019 11.1098 33.95Z" fill="white"/>
<path d="M16.1897 27.4988L14.3897 25.6993C14.1152 25.4248 13.67 25.4248 13.3955 25.6993C13.1209 25.9739 13.1209 26.419 13.3954 26.6934L15.1953 28.493C15.5735 28.8713 15.569 29.4913 15.1853 29.875C14.8016 30.2587 14.1815 30.2633 13.8033 29.8849L12.0035 28.0852C11.729 27.8107 11.2837 27.8109 11.0092 28.0854C10.7347 28.3599 10.7347 28.805 11.0092 29.0795L12.8089 30.8793C13.7357 31.8058 15.2476 31.8014 16.1797 30.8693C17.1118 29.9373 17.1163 28.4255 16.1897 27.4988Z" fill="white"/>
<path d="M19.7823 26.2725L17.2967 23.7869L17.9264 23.1572C18.201 22.8826 18.2011 22.4376 17.9263 22.1629C17.6518 21.8884 17.2067 21.8884 16.9321 22.163L14.6784 24.4165C14.4038 24.6911 14.4038 25.1363 14.6783 25.4107C14.9531 25.6855 15.3981 25.6854 15.6727 25.4108L16.3024 24.781L18.7881 27.2666C19.0628 27.5413 19.5078 27.5412 19.7824 27.2666C20.0569 26.9921 20.057 26.5471 19.7823 26.2725Z" fill="white"/>
<path d="M23.7203 22.3347C23.4456 22.0603 23.0005 22.0602 22.7259 22.3348L21.6984 23.3622L19.2127 20.8765C18.9382 20.602 18.493 20.602 18.2185 20.8765C17.9439 21.1511 17.9439 21.5962 18.2184 21.8707L21.2015 24.8534C21.4762 25.1281 21.9212 25.128 22.1957 24.8535L23.7203 23.3289C23.9949 23.0543 23.995 22.6093 23.7203 22.3347Z" fill="white"/>
<path d="M26.5881 19.4672C26.3136 19.1925 25.8683 19.1925 25.5938 19.467L24.5663 20.4944L24.0692 19.9974L24.6989 19.3677C24.9736 19.0931 24.9734 18.648 24.6987 18.3734C24.4242 18.0988 23.9792 18.0989 23.7046 18.3734L23.0749 19.0032L22.5777 18.506L23.6052 17.4786C23.8799 17.2039 23.8799 16.759 23.605 16.4844C23.3305 16.2099 22.8856 16.2097 22.6109 16.4844L21.0862 18.0089C20.8117 18.2834 20.8117 18.7286 21.0862 19.0031L24.0693 21.9858C24.3439 22.2605 24.7891 22.2604 25.0636 21.9858L26.5882 20.4614C26.8627 20.1868 26.8627 19.7418 26.5881 19.4672Z" fill="white"/>
<path d="M28.9913 17.0641L26.5055 14.5786L27.1354 13.9488C27.4099 13.6742 27.4099 13.2293 27.1352 12.9545C26.8607 12.68 26.4156 12.68 26.1411 12.9546L23.8873 15.2082C23.6126 15.4829 23.6126 15.928 23.8871 16.2024C24.1619 16.4771 24.6069 16.4771 24.8816 16.2024L25.5113 15.5727L27.997 18.0584C28.2717 18.3331 28.7168 18.3329 28.9913 18.0584C29.2658 17.7839 29.266 17.3387 28.9913 17.0641Z" fill="white"/>
<path d="M46.8974 18.9806C46.1905 17.2622 45.176 15.7078 43.8812 14.3625C43.2446 13.6997 42.5415 13.0941 41.7933 12.5605C41.0395 12.0243 40.2313 11.5565 39.3922 11.1713C39.231 11.0973 39.0686 11.0274 38.9054 10.9596C38.9052 10.8098 38.9051 10.668 38.9048 10.5358C38.9012 8.98725 38.2639 7.49832 37.1095 6.34219C35.954 5.1886 34.4649 4.55128 32.9162 4.54772C31.9346 4.54566 30.4492 4.54772 28.7292 4.55007C27.7831 4.55147 26.7837 4.55288 25.7962 4.55372C24.0573 4.55513 22.4224 5.23303 21.1926 6.46266L2.03224 25.6218C-0.677414 28.3313 -0.677414 32.74 2.03224 35.4495L8.00093 41.4178C9.31352 42.7303 11.0588 43.4531 12.9151 43.4531C14.7715 43.4531 16.5167 42.7303 17.8293 41.4178L36.9896 22.2589C38.2193 21.0292 38.8973 19.3943 38.8987 17.6555C38.8995 16.668 38.9008 15.6687 38.9023 14.7226C38.9035 13.9163 38.9046 13.1625 38.9051 12.487C43.4687 14.6131 46.5943 19.2338 46.5937 24.5878C46.5927 28.1523 45.2051 31.5047 42.684 34.0256C40.162 36.5467 36.8101 37.935 33.2456 37.935H33.2409C30.8154 37.935 28.2821 37.1944 26.1097 35.85C25.9981 35.7807 25.8706 35.745 25.7403 35.745C25.4947 35.745 25.2705 35.8697 25.1411 36.0779C24.9377 36.4079 25.0399 36.8419 25.37 37.0463C26.542 37.7709 27.7973 38.3354 29.1024 38.7253C30.4693 39.1341 31.8635 39.3413 33.2455 39.3413C35.2369 39.3413 37.1691 38.9513 38.988 38.1816C39.8628 37.8123 40.7057 37.3548 41.4951 36.8213C42.2761 36.2934 43.0102 35.6878 43.6787 35.0203C44.3463 34.3528 44.9519 33.6178 45.4797 32.8369C46.0132 32.0475 46.4707 31.2047 46.8401 30.3309C47.61 28.5113 48 26.5799 48 24.5877C48 22.6471 47.6288 20.7599 46.8974 18.9806ZM37.496 14.7205C37.4946 15.6669 37.4932 16.6665 37.4923 17.6543C37.4912 19.0179 36.9596 20.3001 35.9951 21.2644L16.8349 40.4233C14.6736 42.5845 11.1567 42.5845 8.99543 40.4233L3.02674 34.455C1.97974 33.4081 1.40309 32.0161 1.40309 30.5355C1.40309 29.055 1.97965 27.663 3.02665 26.6161L22.187 7.45725C23.1515 6.49285 24.4336 5.9611 25.7973 5.96007C26.7852 5.95922 27.7849 5.95782 28.7313 5.95641C29.9445 5.95463 31.0408 5.95313 31.9253 5.95313C32.2936 5.95313 32.6251 5.95341 32.913 5.95407C34.0876 5.95669 35.2251 6.44804 36.1151 7.33669C36.9835 8.20622 37.471 9.31107 37.4962 10.4558C36.7775 10.2398 36.0435 10.0788 35.297 9.97519C35.0422 8.89575 34.0713 8.08969 32.9152 8.08969C31.5656 8.08969 30.4676 9.18769 30.4676 10.5372C30.4676 11.8868 31.5656 12.9847 32.9152 12.9847C33.9673 12.9847 34.8664 12.3173 35.2118 11.3839C35.9998 11.4991 36.7643 11.6827 37.4995 11.9277C37.4989 12.7342 37.4975 13.6842 37.496 14.7205ZM33.5587 11.2527H33.6695C33.4796 11.4528 33.212 11.5784 32.915 11.5784C32.3409 11.5784 31.8737 11.1113 31.8737 10.5372C31.8737 9.963 32.3409 9.49594 32.915 9.49594C33.2241 9.49594 33.5014 9.63207 33.6923 9.84657H33.5588C33.1716 9.84657 32.8556 10.1616 32.8556 10.5497C32.8556 10.9369 33.1715 11.2527 33.5587 11.2527Z" fill="white"/>
</g>
<defs>
<clipPath id="clip0_2170_5528">
<rect width="48" height="48" fill="white"/>
</clipPath>
</defs>
</svg>
