<svg width="40" height="40" viewBox="0 0 40 40" fill="none" xmlns="http://www.w3.org/2000/svg">
<g clip-path="url(#clip0_2169_5463)">
<g clip-path="url(#clip1_2169_5463)">
<g clip-path="url(#clip2_2169_5463)">
<mask id="mask0_2169_5463" style="mask-type:luminance" maskUnits="userSpaceOnUse" x="0" y="0" width="40" height="40">
<path d="M40 0H0V40H40V0Z" fill="white"/>
</mask>
<g mask="url(#mask0_2169_5463)">
<path fill-rule="evenodd" clip-rule="evenodd" d="M35 7.5H5C4.33697 7.5 3.70107 7.7634 3.23223 8.23223C2.7634 8.70107 2.5 9.33697 2.5 10V30C2.5 30.663 2.7634 31.299 3.23223 31.7678C3.70107 32.2367 4.33697 32.5 5 32.5H35C35.663 32.5 36.299 32.2367 36.7678 31.7678C37.2367 31.299 37.5 30.663 37.5 30V10C37.5 9.33697 37.2367 8.70107 36.7678 8.23223C36.299 7.7634 35.663 7.5 35 7.5ZM5 5C3.67392 5 2.40215 5.52678 1.46447 6.46447C0.526785 7.40215 0 8.67392 0 10V30C0 31.326 0.526785 32.5978 1.46447 33.5355C2.40215 34.4732 3.67392 35 5 35H35C36.3262 35 37.5978 34.4732 38.5355 33.5355C39.4732 32.5978 40 31.326 40 30V10C40 8.67392 39.4732 7.40215 38.5355 6.46447C37.5978 5.52678 36.3262 5 35 5H5Z" fill="#1D1D1D"/>
<path d="M5 13.75C5 13.4185 5.1317 13.1005 5.36612 12.8661C5.60053 12.6317 5.91848 12.5 6.25 12.5H11.25C11.5815 12.5 11.8995 12.6317 12.1339 12.8661C12.3683 13.1005 12.5 13.4185 12.5 13.75V16.25C12.5 16.5815 12.3683 16.8995 12.1339 17.1338C11.8995 17.3683 11.5815 17.5 11.25 17.5H6.25C5.91848 17.5 5.60053 17.3683 5.36612 17.1338C5.1317 16.8995 5 16.5815 5 16.25V13.75Z" fill="#1D1D1D"/>
<path fill-rule="evenodd" clip-rule="evenodd" d="M5 21.25C5 20.9185 5.1317 20.6005 5.36612 20.3662C5.60053 20.1317 5.91848 20 6.25 20H18.75C19.0815 20 19.3995 20.1317 19.6338 20.3662C19.8683 20.6005 20 20.9185 20 21.25C20 21.5815 19.8683 21.8995 19.6338 22.1338C19.3995 22.3683 19.0815 22.5 18.75 22.5H6.25C5.91848 22.5 5.60053 22.3683 5.36612 22.1338C5.1317 21.8995 5 21.5815 5 21.25ZM5 26.25C5 25.9185 5.1317 25.6005 5.36612 25.3662C5.60053 25.1317 5.91848 25 6.25 25H8.75C9.08152 25 9.39947 25.1317 9.63388 25.3662C9.8683 25.6005 10 25.9185 10 26.25C10 26.5815 9.8683 26.8995 9.63388 27.1338C9.39947 27.3683 9.08152 27.5 8.75 27.5H6.25C5.91848 27.5 5.60053 27.3683 5.36612 27.1338C5.1317 26.8995 5 26.5815 5 26.25ZM12.5 26.25C12.5 25.9185 12.6317 25.6005 12.8661 25.3662C13.1005 25.1317 13.4185 25 13.75 25H16.25C16.5815 25 16.8995 25.1317 17.1338 25.3662C17.3683 25.6005 17.5 25.9185 17.5 26.25C17.5 26.5815 17.3683 26.8995 17.1338 27.1338C16.8995 27.3683 16.5815 27.5 16.25 27.5H13.75C13.4185 27.5 13.1005 27.3683 12.8661 27.1338C12.6317 26.8995 12.5 26.5815 12.5 26.25ZM20 26.25C20 25.9185 20.1317 25.6005 20.3662 25.3662C20.6005 25.1317 20.9185 25 21.25 25H23.75C24.0815 25 24.3995 25.1317 24.6338 25.3662C24.8683 25.6005 25 25.9185 25 26.25C25 26.5815 24.8683 26.8995 24.6338 27.1338C24.3995 27.3683 24.0815 27.5 23.75 27.5H21.25C20.9185 27.5 20.6005 27.3683 20.3662 27.1338C20.1317 26.8995 20 26.5815 20 26.25ZM27.5 26.25C27.5 25.9185 27.6317 25.6005 27.8662 25.3662C28.1005 25.1317 28.4185 25 28.75 25H31.25C31.5815 25 31.8995 25.1317 32.1338 25.3662C32.3683 25.6005 32.5 25.9185 32.5 26.25C32.5 26.5815 32.3683 26.8995 32.1338 27.1338C31.8995 27.3683 31.5815 27.5 31.25 27.5H28.75C28.4185 27.5 28.1005 27.3683 27.8662 27.1338C27.6317 26.8995 27.5 26.5815 27.5 26.25Z" fill="#1D1D1D"/>
</g>
</g>
</g>
</g>
<defs>
<clipPath id="clip0_2169_5463">
<rect width="40" height="40" fill="white"/>
</clipPath>
<clipPath id="clip1_2169_5463">
<rect width="40" height="40" fill="white"/>
</clipPath>
<clipPath id="clip2_2169_5463">
<rect width="40" height="40" fill="white"/>
</clipPath>
</defs>
</svg>
