<svg width="48" height="48" viewBox="0 0 48 48" fill="none" xmlns="http://www.w3.org/2000/svg">
<g clip-path="url(#clip0_1580_8)">
<path d="M47.8021 18.345C47.2149 15.9452 45.1899 13.9909 42.764 13.483C42.5637 13.441 42.3641 13.4484 42.1635 13.4244C40.3586 5.599 33.479 0 25.3354 0H22.6685C14.5264 0 7.64562 5.60013 5.83987 13.4246C4.56387 13.5864 3.34475 14.0744 2.34925 14.9205C0.856875 16.1901 0 18.0416 0 20C0 22.0846 1.00525 24.0534 2.66687 25.306V37.3334C2.66687 39.299 3.74725 41 5.33375 41.925V44C5.33375 46.2057 7.12812 48 9.33412 48C11.5401 48 13.3345 46.2057 13.3345 44V42.6666H34.6696V44C34.6696 46.2057 36.464 48 38.67 48C40.876 48 42.6704 46.2057 42.6704 44V41.925C44.2569 41 45.3372 39.299 45.3372 37.3334V25.3074C47.4687 23.7084 48.4519 21.0052 47.8021 18.345ZM22.6666 2.66663H25.3332C32.0854 2.66663 37.8029 7.21925 39.4689 13.6309C38.6284 13.8759 37.8281 14.2588 37.1327 14.8229C35.565 16.0963 34.6666 17.983 34.6666 20V26.6666H13.3334V20.2851C13.3334 17.1689 11.3119 14.4531 8.53237 13.6235C10.1999 7.21675 15.9176 2.66663 22.6666 2.66663ZM37.3334 30.6666C37.3334 31.4022 36.7357 32 36 32H12C11.2644 32 10.6666 31.4024 10.6666 30.6666C10.6666 29.931 11.2642 29.3333 12 29.3333H36C36.7356 29.3334 37.3334 29.931 37.3334 30.6666ZM10.6666 44C10.6666 44.7356 10.069 45.3334 9.33325 45.3334C8.59762 45.3334 8 44.7356 8 44V42.6666H10.6666V44ZM40 44C40 44.7356 39.4024 45.3334 38.6666 45.3334C37.931 45.3334 37.3332 44.7358 37.3332 44V42.6666H40V44ZM43.3294 23.4414C42.9192 23.6796 42.6666 24.1185 42.6666 24.5938V37.3334C42.6666 38.8034 41.47 40 40 40H8C6.53 40 5.33337 38.8034 5.33337 37.3334V24.5938C5.33337 24.1197 5.08075 23.681 4.67062 23.4414C3.41538 22.711 2.66662 21.4245 2.66662 20C2.66662 18.8255 3.181 17.7135 4.07675 16.9519C4.98562 16.1784 6.151 15.8607 7.34762 16.056C9.2395 16.3632 10.6666 18.1823 10.6666 20.2851V26.9123C9.118 27.4645 8 28.9306 8 30.6666C8 32.8724 9.79425 34.6666 12 34.6666H36C38.2057 34.6666 40 32.8724 40 30.6666C40 28.9306 38.882 27.4645 37.3334 26.9123V20C37.3334 18.789 37.8725 17.6575 38.8139 16.8932C39.7682 16.1185 40.9754 15.8334 42.2136 16.0925C43.6564 16.3946 44.8595 17.5547 45.2071 18.9779C45.6459 20.7709 44.9089 22.5221 43.3294 23.4414Z" fill="white"/>
</g>
<defs>
<clipPath id="clip0_1580_8">
<rect width="48" height="48" fill="white"/>
</clipPath>
</defs>
</svg>
