<svg xmlns:xlink="http://www.w3.org/1999/xlink" xmlns="http://www.w3.org/2000/svg" width="39" height="39" viewBox="0 0 39 39" fill="none"><path d="M16.7524 0.548822C18.5145 -0.182941 20.4855 -0.182941 22.2476 0.548822L36.8686 6.62087C37.4984 6.88217 38.0377 7.3301 38.4174 7.90728C38.7972 8.48447 39 9.16463 39 9.86063V29.1414C38.9996 29.837 38.7966 30.5168 38.4169 31.0935C38.0372 31.6703 37.4981 32.118 36.8686 32.3791L22.2476 38.4512C20.4855 39.1829 18.5145 39.1829 16.7524 38.4512L2.13135 32.3791C1.50156 32.1178 0.962273 31.6699 0.582558 31.0927C0.202844 30.5155 -3.94978e-06 29.8354 0 29.1394V9.86262C-3.94978e-06 9.16662 0.202844 8.48647 0.582558 7.90928C0.962273 7.3321 1.50156 6.88417 2.13135 6.62287L16.7524 0.548822ZM21.1478 3.32519C20.091 2.88656 18.909 2.88656 17.8522 3.32519L14.118 4.87715L28.7957 10.7235L34.0002 8.66619L21.1478 3.32519ZM24.7474 12.3234L10.1693 6.51501L5.0505 8.64022L19.502 14.3967L24.7474 12.3234ZM2.925 29.1414C2.92525 29.2405 2.95432 29.3374 3.0085 29.4195C3.06267 29.5017 3.1395 29.5655 3.2292 29.6028L17.8522 35.6748C17.9127 35.7008 17.9751 35.7248 18.0375 35.7467V17.0292L2.925 11.0091V29.1414ZM21.1478 35.6748L35.7708 29.6028C35.8608 29.5654 35.9378 29.5013 35.9921 29.4187C36.0462 29.3361 36.0751 29.2389 36.075 29.1394V11.0571L20.9625 17.0332V35.7487C21.0248 35.7262 21.0866 35.7003 21.1478 35.6748Z" fill="#FF7E20"/></svg>