<svg xmlns:xlink="http://www.w3.org/1999/xlink" xmlns="http://www.w3.org/2000/svg" width="34" height="40" viewBox="0 0 34 40" fill="none"><path d="M16.9231 0L0 5.71429V22.8571C0 32.3259 7.57572 40 16.9231 40C26.2704 40 33.8462 32.3259 33.8462 22.8571V5.71429L16.9231 0ZM30.6731 22.8571C30.6731 30.5491 24.5164 36.7857 16.9231 36.7857C9.32973 36.7857 3.17308 30.5491 3.17308 22.8571V8.125L16.9231 3.21429L30.6731 8.125V22.8571Z" fill="#FF7E20"/><path d="M10.884 17.9525C10.7386 17.8006 10.5658 17.6802 10.3755 17.5979C10.1852 17.5157 9.98108 17.4734 9.77498 17.4734C9.56888 17.4734 9.36481 17.5157 9.17449 17.5979C8.98417 17.6802 8.81134 17.8006 8.66594 17.9525C8.51987 18.1036 8.40397 18.2833 8.32488 18.4811C8.24579 18.6789 8.20508 18.8911 8.20508 19.1053C8.20508 19.3195 8.24579 19.5317 8.32488 19.7295C8.40397 19.9273 8.51987 20.107 8.66594 20.2581L14.3048 26.1196L14.3963 26.2147C14.5339 26.358 14.6972 26.4716 14.8771 26.5491C15.0569 26.6267 15.2497 26.6666 15.4444 26.6666C15.6391 26.6666 15.8318 26.6267 16.0117 26.5491C16.1915 26.4716 16.3549 26.358 16.4924 26.2147L26.2319 16.0907C26.3697 15.9478 26.479 15.778 26.5536 15.591C26.6282 15.4041 26.6666 15.2037 26.6666 15.0013C26.6666 14.799 26.6282 14.5986 26.5536 14.4116C26.479 14.2247 26.3697 14.0549 26.2319 13.9119L26.1099 13.7851C25.9724 13.6419 25.809 13.5282 25.6292 13.4507C25.4493 13.3732 25.2566 13.3333 25.0619 13.3333C24.8672 13.3333 24.6744 13.3732 24.4946 13.4507C24.3147 13.5282 24.1514 13.6419 24.0138 13.7851L15.4422 22.6906L10.884 17.9525Z" fill="#FF7E20"/></svg>