<?xml version="1.0" encoding="UTF-8"?>
<!DOCTYPE svg PUBLIC "-//W3C//DTD SVG 1.1//EN" "http://www.w3.org/Graphics/SVG/1.1/DTD/svg11.dtd">
<svg xmlns="http://www.w3.org/2000/svg" version="1.1" width="49px" height="48px" style="shape-rendering:geometricPrecision; text-rendering:geometricPrecision; image-rendering:optimizeQuality; fill-rule:evenodd; clip-rule:evenodd" xmlns:xlink="http://www.w3.org/1999/xlink">
<g><path style="opacity:0.836" fill="#515151" d="M 48.5,17.5 C 48.5,22.1667 48.5,26.8333 48.5,31.5C 46.8583,33.0808 44.8583,33.7475 42.5,33.5C 42.5,34.5 42.5,35.5 42.5,36.5C 41.5,36.5 40.5,36.5 39.5,36.5C 39.5,35.5 39.5,34.5 39.5,33.5C 29.5,33.5 19.5,33.5 9.5,33.5C 9.5,34.5 9.5,35.5 9.5,36.5C 8.5,36.5 7.5,36.5 6.5,36.5C 6.5,35.5 6.5,34.5 6.5,33.5C 3.50904,33.8337 1.17571,32.8337 -0.5,30.5C -0.5,26.5 -0.5,22.5 -0.5,18.5C 1.21328,16.1496 3.54661,15.1496 6.5,15.5C 6.2965,13.6096 6.96317,12.1096 8.5,11C 18.8333,10.3333 29.1667,10.3333 39.5,11C 41.032,11.6995 42.032,12.8662 42.5,14.5C 44.704,15.2063 46.704,16.2063 48.5,17.5 Z M 9.5,13.5 C 19.1724,13.3335 28.8391,13.5002 38.5,14C 39.4505,17.0567 39.7839,20.2234 39.5,23.5C 29.5,23.5 19.5,23.5 9.5,23.5C 9.5,20.1667 9.5,16.8333 9.5,13.5 Z M 44.5,18.5 C 45.4227,22.0641 45.756,25.7307 45.5,29.5C 31.6728,30.6607 17.6728,30.8273 3.5,30C 2.37809,26.5915 2.21143,23.0915 3,19.5C 4,18.1667 5,18.1667 6,19.5C 6.49665,21.8098 6.66331,24.1432 6.5,26.5C 18.5,26.5 30.5,26.5 42.5,26.5C 42.3367,24.1432 42.5034,21.8098 43,19.5C 43.3826,18.944 43.8826,18.6107 44.5,18.5 Z"/></g>
<g><path style="opacity:0.387" fill="#505050" d="M 44.5,18.5 C 45.7868,19.8714 46.4535,21.7047 46.5,24C 46.4944,26.0326 46.1611,27.866 45.5,29.5C 45.756,25.7307 45.4227,22.0641 44.5,18.5 Z"/></g>
</svg>
