<svg width="48" height="48" viewBox="0 0 48 48" fill="none" xmlns="http://www.w3.org/2000/svg">
<path d="M43.7333 16.5335C42.9866 16.5335 42.2506 16.7468 41.6 17.1308V16.5335C41.6 12.9922 39.808 11.2002 36.2667 11.2002H11.7333C8.192 11.2002 6.4 12.9922 6.4 16.5335V17.1308C5.7493 16.7468 5.0133 16.5441 4.2667 16.5335C1.9093 16.5335 0 18.4429 0 20.8002V29.3335C0 31.6909 1.9093 33.6002 4.2667 33.6002H6.4V35.7335C6.4 36.3202 6.88 36.8002 7.4667 36.8002C8.0534 36.8002 8.5334 36.3202 8.5334 35.7335V33.6002H39.4667V35.7335C39.4667 36.3202 39.9467 36.8002 40.5334 36.8002C41.12 36.8002 41.6 36.3202 41.6 35.7335V33.6002H43.7227C46.08 33.6002 48 31.6909 48 29.3335V20.8002C48 18.4429 46.0907 16.5335 43.7333 16.5335ZM8.5333 16.5335C8.5333 14.1762 9.3653 13.3335 11.7333 13.3335H36.2666C38.6239 13.3335 39.4666 14.1762 39.4666 16.5335V24.0002H8.5333V16.5335ZM45.8667 29.3335C45.8667 30.5175 44.896 31.4668 43.7227 31.4668H4.2667C3.0934 31.4668 2.1334 30.5068 2.1334 29.3335V20.8002C2.1334 19.6269 3.0934 18.6669 4.2667 18.6669C5.44 18.6669 6.4 19.6269 6.4 20.8002V26.1335H41.6V20.8002C41.6 19.6269 42.56 18.6669 43.7333 18.6669C44.9066 18.6669 45.8666 19.6269 45.8666 20.8002V29.3335H45.8667Z" fill="white"/>
</svg>
