<svg width="40" height="40" viewBox="0 0 40 40" fill="none" xmlns="http://www.w3.org/2000/svg">
<g clip-path="url(#clip0_2169_5474)">
<g clip-path="url(#clip1_2169_5474)">
<g clip-path="url(#clip2_2169_5474)">
<mask id="mask0_2169_5474" style="mask-type:luminance" maskUnits="userSpaceOnUse" x="0" y="0" width="40" height="40">
<path d="M40 0H0V40H40V0Z" fill="white"/>
</mask>
<g mask="url(#mask0_2169_5474)">
<path d="M26.0331 18.7C25.8253 18.4894 25.5424 18.3699 25.2464 18.3677C24.9506 18.3657 24.6659 18.4812 24.4553 18.689C24.2446 18.8967 24.1251 19.1797 24.1229 19.4755C24.1209 19.7715 24.2364 20.056 24.4443 20.2667L28.5776 24.4445H8.69974C8.40506 24.4445 8.12244 24.5615 7.91406 24.77C7.70569 24.9784 7.58862 25.261 7.58862 25.5557C7.58862 25.8504 7.70569 26.133 7.91406 26.3414C8.12244 26.5497 8.40506 26.6667 8.69974 26.6667H28.5776L24.4443 30.7779C24.3413 30.8815 24.2599 31.0044 24.2044 31.1394C24.1491 31.2745 24.1208 31.4192 24.1214 31.5652C24.1219 31.7112 24.1511 31.8555 24.2074 31.9902C24.2638 32.125 24.3461 32.2472 24.4498 32.35C24.5533 32.453 24.6763 32.5344 24.8113 32.5899C24.9463 32.6452 25.0909 32.6735 25.2369 32.6729C25.3829 32.6724 25.5274 32.6432 25.6621 32.5869C25.7968 32.5305 25.9191 32.4482 26.0219 32.3445L32.8109 25.5557L26.0331 18.7Z" fill="#1D1D1D"/>
<path d="M14.7107 20.5C14.9314 20.5011 15.1475 20.4368 15.3314 20.3148C15.5153 20.1928 15.6587 20.0188 15.7433 19.815C15.828 19.6111 15.85 19.3866 15.8066 19.1703C15.7632 18.9538 15.6563 18.7553 15.4996 18.6L11.3774 14.4444H31.2441C31.5388 14.4444 31.8213 14.3273 32.0298 14.1189C32.2381 13.9105 32.3551 13.6279 32.3551 13.3332C32.3551 13.0386 32.2381 12.7559 32.0298 12.5476C31.8213 12.3392 31.5388 12.2221 31.2441 12.2221H11.3774L15.4996 8.07769C15.6025 7.97409 15.6839 7.85124 15.7393 7.71616C15.7947 7.58109 15.823 7.43642 15.8224 7.29042C15.8219 7.14442 15.7927 6.99996 15.7363 6.86527C15.68 6.73059 15.5976 6.60832 15.494 6.50546C15.3904 6.40259 15.2676 6.32114 15.1325 6.26574C14.9974 6.21036 14.8528 6.18211 14.7068 6.18262C14.4119 6.18366 14.1296 6.30179 13.9218 6.51102L7.13293 13.3332L13.9218 20.1555C14.0238 20.2625 14.1461 20.348 14.2816 20.4071C14.417 20.4663 14.5629 20.4978 14.7107 20.5Z" fill="#1D1D1D"/>
</g>
</g>
</g>
</g>
<defs>
<clipPath id="clip0_2169_5474">
<rect width="40" height="40" fill="white"/>
</clipPath>
<clipPath id="clip1_2169_5474">
<rect width="40" height="40" fill="white"/>
</clipPath>
<clipPath id="clip2_2169_5474">
<rect width="40" height="40" fill="white"/>
</clipPath>
</defs>
</svg>
